<svg width="537" height="181" fill="none" xmlns="http://www.w3.org/2000/svg">
  <path d="m171 100 2 12v9l-1 8 1 9-2 9-6 3h-8l-4 1-4-1h-6l1 5v9l1 3-1 4-2 4-5 1-8 1-9 3-12-1-6-2-3 1-8-2-5-1-2-11-1-5-1-5v-4h-4l-14 1-5-1H35l-11-1-6 1H9l-4-1-3-5 2-14-2-10-1-4 1-8 3-8 6-8 5-8 16-19 13-15 2-4 5-8 2-4 13-14 7-8 6-8 14-1h10l5 1 5-1h10l8-1 8 3 3 5 1 10v31l-1 4 1 5-1 4 1 11 1 5-1 4v16h4l4-1h5l9-1 5 2Zm-67-86-2 1-1 2 1 1-1 2 1 2 2-2 1-2-1-4ZM87 29l2-2-1-2-2-1 1 5Zm14-2-2-2h-2v4h2l2-2Zm2 1 1-2-2 2h1Zm-9 1 1 1h2l-3-1Zm-16 5-3-3 1 3h2l-3 3h2l1-3Zm-13 2-3-2-1-2v4l1-1 2 2 1-1Zm35-2-2-1-2 2 5 2-1-3Zm-32 5 2-1-2-4-2 2v2l2 1Zm22-4 2 1 2-1h-4Zm-32 2 1-1h-1v1Zm22 0h-1l-3 2 1 2 3-2v-2Zm27 1-2 1-1-2h-3l-1 2 3 2 2 1 2-2v-2Zm-37 4 3-1v-2l-2-1-2 2 1 2Zm-7-2h2l-2-1v1Zm17 2v3l2 1-1-4v-2h-2l-1 2h3-1Zm-11 1 5 1v-3l-2 2-1-1-2 1Zm24 0 3 2 1-2-1-2-2 1-1 1Zm-27 1h-1l-2 1 3-1Zm0 1v1h3v-1h-3Zm13 0-2 4 2-1v-3Zm8 6-1-2-2 1-1 2 4 1v-2Zm-10 1v-2l-1 4 1-2Zm30-2-1 2h3l-1-1-1-1Zm22 6v-3l-3 1 1 2h2Zm-62-2v2l2 1-2-3Zm9 5 2-2-1-2h-1v4Zm41-3-1-1h-2v3h2l1-2Zm3 1v-1l-1-1 1 2Zm-16 1v-3h-2l2 3Zm8 1-1 2-3 1 1 2h2l1-2h2l-1 2v2l4-1v-1l-1-2-1-3-1-1-1-2-1 3Zm19-1-1 1 1 1 2-1-2-1Zm-30 0 1 2h1l-2-2Zm-30 2h-6l-1 2 1 2 2-4 2 1-2 2h2l1-1 1-2Zm16 0v2l1 1h2l-1-3h-2Zm32 2 1 1h2l1-2-3-1-1 2Zm7 1-3-1v1h-2l1 2h3l1-2Zm-23 2 1-2-1 1v1Zm24 0-4 1 3 1 1-2ZM84 78v-8l1-4-2 5-7 11-3 4-9 7-6 8 4-1 19 3h5l1-3 1-6-4-16Zm-11-7v-3l-2-1-2 4 2 1 2-1Zm38-3-1-1h-2l3 1Zm-6 5 1-4v-2h-3v3l-2-1 3 4h1Zm19-5-1 2 1 1 1 1-1-4Zm-8 7 2-1v-1l-1-3-2 2-1 2v1l2 1v-1Zm5-4-1 1 1 1 2-1-1-1h-1Zm-48 3 1 2 1-5-2 1v2Zm64 0 1-1-2-2-2 3 2 1 1-1Zm-42 1h2v-3h-2l-1 1 1 2Zm29 2 3-1v-3l-3-1v5Zm-56-1-1-3-3 4h3l1-1Zm35 6h5l-5-4-1 1 1 3-2 2h-1l-1 2 2 2h2v-6Zm-3-2 1-1-3 1h2Zm10 0 1 2 1-2h-2Zm30 9-2-2h1-4v3l1 2 3-1-1-2 2 1v-1Zm-46-1v2l1-2h-1Zm12 0-2 1-1 2 5-1-2-2Zm10 0h-4l1 2h2l1-2Zm20 8 1 2 4-2-2-2h-2l-1 2Zm-42 2 2 1-1-3-1 2Zm13-1-1 1v3l1-4Zm3 3 2 2 2-1-1-4-2 1-1 2Zm-13 0v-1l-1-1v3l1-1Zm26 2h2v-2l-2 2Zm-23 4 1 2 6-2-1-2h-5l1-1v-2h-2v2l1 1h-3 3l-1 2Zm-11-4 1 2h3l-4-2Zm23 3-1-3-1 1 2 2Zm36 3-1-2-2 1-1 2 4-1Zm-50-1h-4l-1 2 5-2Zm11 1v1h4l-1-2-3 1Zm-25 0-3 1 2 1 1-2Zm11 4 2-2h-1l-1 2Zm44 0v2l4 1v-3l-2-1-2 1Zm-46 3-1-1h-2l3 1Zm4 2 1-2h-1v2Zm-8 0 2-2-2 1v1Zm20 3h2l2-1v-3h-3l-1 4Zm17-1-1-3-1 1v3h3l-1-1Zm-7-2-1 2 1 1 1 1 1-2-2-2Zm-19 1-2 3-1 1h2l2-1v-2l-1-1Zm3 0v2l2 1-2-3Zm-33 4h2l-1-3-1 1v2Zm8-1 1 1v-3l-1 1v1Zm30 1h3l-5-2 2 2Zm-26 1v-2l-1 3 1-1v2l1 1-1-3Zm-6-1-1-1-2 1 2 3 2-1-1-2Zm29 2v3l1 1v-4l-1-3-4 1 4 2Zm-34 0-2-2-2 1 1 2 2 1 1-2Zm68-1-3-1 1 2 2-1Zm-46 1h2l-2-2v2Zm5-1-2 3 1 1v2l1 4 1-2 2-1v-3 2l2 2-1-4h1v-2l-2-2h-3Zm-8 7v-2h2v-2l-1-2h-4l1 1v1l-1 2-1 2h-3l1 4v1h2v-3l2-1 2-1Zm20-6-1 2 2 2 3-2-1-2h-3Zm17 1-1-1h-1l-1 1 1 2 2-2Zm13-1-4 2 2 1 2-1v-2Zm-77 3-1-1-2 3h2l1-2Zm9-1-1 2 1 2 3-4h-3Zm55 1-2-1 1 2 1-1Zm26 1h1l1-2-3 1 1 1Zm-77-1 2 1-1-1h-1Zm-18 0v2l1 1h1l-2-3Zm86 0 1 1h2l-3-1Zm-81 1 1 2h2l2-2h-5Zm91 2-1-1-1 1v2h2v-2Zm-74 0h-2l-1 2h4l1 2v-4 1l-2-1Zm-10 3h2v-2l-2 2Zm-14-1-2-1-2 2 1 2 4-1-1-2Zm18 4-3-2v2h3Zm58-2v2l1 1v-3h-1Zm16 1-4-1v2h2l2-1Zm-51 0v2l1 1 2-3-1-1-2 1Zm52 1h3l2 2v-1l-1-1-2-1h-1l-1 1Zm-79 0-1 2h1v-2Zm34 4v-2l-1-2-2 2v1l2 1h1Zm-13-4-2 1h1l1-1Zm70 3-3-1 1 2 2-1Zm-105 3 1-2-2-1-2 1 1 3 2-1Zm-17-1 2 2 2-1 1-2-5 1Zm100 1v2l1 1 2-1-1-3-2 1Zm-16-1-2 1 2 1v-2Zm13 3 2 2 1-5-2 1-1 2Zm-40 0-1-2v3l1-1Zm25-1-1 1 1 2v-3Zm15 6 2-1-3-3-1 2 2 2Zm-78-3h-4l2 1 2-1Zm70 4h2v-2l-4 1 2 1Zm-27 0 1 1h3v-2l-1-1-2 2h-1Zm37 9-2 1v3l4-3-2-1Zm-13 4v2h2l2-1-1-2-3 1Zm224-93 1 5v5l-2 16v10l1 6-1 5-3 10-3 15-6 9-2 4-8 5-3 5-4 2-10 7-10 2-10 3-5 1-4 1h-10l-7-1h-9l-10-2-6-1-14-7-8-6-8-6-3-4-4-4-4-9-1-5-2-4-3-10-2-10 2-12-1-9 1-6-1-11 1-10 4-22 6-9 8-9 3-4 18-13 9-4h9l11-2 10-1 17 3h5l9 1 5 1 4 2 10 6 8 8 3 3 4 2 2 5 3 4 3 3 1 4 4 18 2 10Zm-49-59 2 1-3-3 1 2Zm-15-1v2l2 1h2l-2-4-2 1Zm-37 3-1-2h-2l1 2h2Zm-13 3-2-1-2 3 1 1h2l1-3Zm47 2h-1v2l1-2Zm-47 3-2-1h-2l1 2-1 1v3l2 1v2h2l1-2-1-2-2 1v-3l1 1 1-3Zm60 1-1-2h-1l1 2h1Zm-31 1-1-3-1 4 2-1Zm13 1h-2l-1 1 3-1Zm-29 4 1-2-1-2-2 3 2 1Zm67-3h-1l-2 1 3-1Zm-3 1-2 1v2l2-3Zm5 5 2-2-1-2-5 2h1l1 2h2Zm-47-4h-1l-1 3h2l1-1-1-2Zm23 3-1-3v5l1-2Zm-49 0v-2l-2 2h2Zm1 2h2l-3-2 1 2Zm-5-1-1-1-2 1h3Zm59 0-1 1 3 1v2l2-2v-2h-4Zm23 1-2-1-1 1v2l3-2Zm2 2h1l-2-2 1 2Zm-97 1-1-2v2l1 2v-2Zm9 1 1-1h-1l1-1-3 1-1 2 2 2 1-3Zm-12 0-1-2-3 3 2 2v-1l2-2Zm23-2-2 1v1l2-1v-1Zm-8 0v2l2-2h-2Zm10 7 2-3v-2h-6l-2 1v2l2 1 3 2 1-1Zm3-5v2l2 1 3-1-5-2Zm-39 1h-2l-1 2 1 1 3-1-1-2Zm49 3-1-2h-1v3h2v-1Zm27 1 2-1-1-2-3 3h2Zm32-2 1 2 1-3h-1l-1 1Zm-9 3 2-3h-2l-1 1 1 2Zm-87 1 1 2 2-1-1-4-2 3Zm8-3-3 1v3l2 1 3-3-2-2Zm23 2 2-2h-2v2Zm38-1 3 2v-2l-2-1-1 1Zm-11 2h2l1-1-2-1-1 1v1Zm-48 0 4 1v-2l-1-1h-2l-1 2Zm7 1h2l-2-3-1 2 1 1Zm65-1-1-2-3 2 1 2h2l1-2Zm-56 0-2-1 1 2 1-1Zm66 0v2h1l-1-2Zm-38 2 1-1-3-1v2h2Zm-37 3 1-1-1-1v-1h-4l2 2 1 1h1Zm-19-2 3 1 1-1h-1l-2-1-1 1Zm108 1-1-1-1 1 2 1v-1Zm-28 0-1 3 3-4-2 1Zm-83 3v-2l-2-1 2 3Zm3 0-2-2-1 5 2-1 1-2Zm32-1-1-1v1h1Zm-4 1 1-1-3-1v2h2Zm-21-1-1 1v2h2l1-3h-2Zm53 32 1-5V66l-10-16-6-1-5 1-3 3-4 12v6l-1 12v5l1 22 1 12 8 8h5l5 1 4-4 3-12 1-6V81Zm36-30 1-1-3 1-1 1 3 2 1-2-1-1Zm4 2h2l2-1-4-2h-3l3 3Zm11 0 1-2-3 2h2Zm-103 1v2l2 1 2-1-2-4-2 2Zm102 0-2-1-2 1h4Zm-31 2 2-1-3-1-1 2 1 2h2l-1-2Zm-102 1h2l1-2h-4l1 2Zm12 0-2-2v5l2-1v-2Zm-14 3 1-1v-2l-3 2 2 1Zm41-1 1-2-2 2h1Zm-3-2h-1l1 2v-2Zm108 3-1-1h-3l4 1Zm-112 0h-1l1 2v-2Zm109 3h2l-3-2 1 2Zm-128 0 2-2-4 1 2 1Zm12 2v-2l-2-1 2 3Zm85-1 1 1 2-1v-1l-1-1-2 2Zm21-2v1l2-1h-2Zm-10 2 3-1h-5l2 1Zm-4 6 1-2h2v-3h-4v2l-2 1 1 2h2Zm-105-1h2l1-1-1-1-2 2Zm30-1-1-1 1 4v-3Zm9 1 2-1v-1l-2 2Zm82 1 1-3-2 2 1 2v3l1-3-1-1Zm-88-3-1 3 1-1v-2Zm-10 6h-3v1l2 1h1v-2Zm67 0h-2v1l2-1Zm1 1-1-1-1 1 2 1 1 1-1-2Zm39 1v-2h-2l2 3v-1Zm-52-1h-2l-1 2 4 2 1-2-2-2Zm26 3 3 1-1-1-3-3 1 3Zm-3 2h3l-3-2v2Zm0 4 2 1v-4l-1 1-1 2Zm-70 4h2l-1-3h4v-2l-1-1-1 2-4 1v2l1 1Zm64-2-5-3v3l3 1 2-1Zm5 0 2-1-3-1 1 2Zm22-1-2 1h-2l1 2h2l1-2v-1Zm8 6h2l2-2-1-2h-2l-3 5h2l-1 1 1-2Zm-6 1v-4l-2-1-2 3 1 2h3Zm-25-3-2-1-2 2v2h5l-1-3Zm-67 4 1-3h-1v3Zm96 1-1 2 3-1-1-1h-1Zm-51 3 1-2h-2v2h1Zm-39-2-5 1 3 2 1-1 1-2Zm84 0-2 1-1 2 1 1 2 1h4v-2l-2-1h-2v-2Zm-42 2-2 1h3l-1-1Zm48 4-1 2h2v-5l-1 3Zm-42 7v-3l-1-1 1-2-4-1 1-1-3-1 1 2-1 2 1 2h1v2l-1 2 2-1h3Zm-55-7 1 1h3l-4-1Zm81 2-4-2v2l2 1 2-1Zm-23 2 1 3 2 1 2-4-3-1-2 1Zm28 1-2-2-2 2 1 2 2-1 1-1Zm12-1h-2l3 1-1-1Zm-30 6 2-1 1-2-2-1h-2l-2-2-1 1v2l-1-1v1h1l2 1 2 2Zm21-1 1-2h-1v2Zm-43 2 3-1-1-1-2-1-1 2 1 1Zm46-3 3 2-1-1-2-1Zm-35 1 2 3v-1l-1-2h-1Zm35 3-1 2 4-1-2-1h-1Zm-43 1-2-1-2 2 2 3 2-1v-3Zm33 7 2 1h2l-1-4h-1l-1-1-1-2h-1l-2 1 3 1h-2l-1 2 2 1 1 1Zm-25-4h2v-2h-3l1 2Zm-8 2-1 2h2l-1-2Zm-3 5 2 1 1-3-2-1-1 1v2Zm18-1v2l3-4-3 2Zm31 1 2 2 1-2-1-1h-1l-1 1Zm-7 4 3 1 2-2-1-3h-2l-2 4Zm-90-1v-1l-2 1h2Zm-10 8 2 1 3-3-2-1h-2l-1 3Zm-24 1h4v-2l-2-1-2 1v2Zm23 2-1 2 5-1-2-2-2 1Zm12 2-1-2v4l1-2Zm-20 6 2 1 1-1v-2h-1l-2 2Zm54-2 1 1 2-1h-3Zm-39 5h2l1-1-1-2h-2v3Zm-6 2 2 1 1-1-3-1v1Zm10 17 2 2 3-1-5-1Zm8 6 1 2 3-1-4-3v2Zm285-73 2 12v26l-2 9-6 3h-8l-4 1-4-1h-6l1 5 1 9v3l-1 4-2 4-5 1-8 1-9 3-12-1-5-2-4 1-8-2-5-1-2-11-1-5v-5l-1-4h-3l-15 1-5-1h-24l-11-1-5 1h-10l-4-1-2-5 1-14-1-10-2-4 1-8 4-8 5-8 5-8 16-19 13-15 2-4 6-8 1-4 13-14 7-8 6-8 14-1h10l5 1 5-1h10l9-1 8 3 2 5 1 10 1 5-1 10v16l-1 4 1 5v15l1 5-1 4v16h4l5-1h4l9-1 5 2Zm-67-86-2 1-1 2 1 1-1 2 2 2 1-2 1-2-1-4Zm-16 15 1-2v-2l-3-1 2 5Zm13-2-1-2h-3v4h3l1-2Zm2 1 1-2-2 2h1Zm-9 1 2 1h2l-4-1Zm-15 5-4-3 1 3h2l-3 3h3l1-3Zm-14 2-3-2-1-2v4l1-1 2 2 1-1Zm36-2-3-1-2 2 5 2v-3Zm-32 5 2-1-3-4-2 2v2l3 1Zm21-4 2 1 3-1h-5Zm-32 2 2-1h-2v1Zm22 0h-1l-3 2 2 2 3-2-1-2Zm27 1-2 1-1-2h-3l-1 2 3 2 2 1 2-2v-2Zm-37 4 3-1v-2l-2-1-1 2v2Zm-6-2h1l-2-1 1 1Zm16 2v3l2 1-1-4v-2h-2v2h2-1Zm-11 1 5 1v-3l-1 2-2-1-2 1Zm24 0 3 2 1-2-1-2-2 1-1 1Zm-27 1h-1l-1 1 2-1Zm1 1v1h2v-1h-2Zm13 0-2 4 2-1v-3Zm8 6-2-2-2 1-1 2 4 1 1-2Zm-10 1-1-2-1 4 2-2Zm29-2-1 2h3l-1-1-1-1Zm22 6 1-2-1-1-2 1v2h2Zm-62-2 1 2 2 1-3-3Zm10 5 1-2v-2h-2l1 4Zm40-3-1-1h-1l-1 3h2l1-2Zm3 1v-1l-1-1 1 2Zm-16 1v-3h-1l1 3Zm9 1-2 2-2 1v2h2l1-2h2l-1 2v2l4-1 1-1-2-2-1-3-1-1v-2l-1 3Zm18-1-1 1 2 1 1-1-2-1Zm-30 0 1 2h1l-2-2Zm-30 2h-6l-1 2 1 2 2-4 2 1-2 2h2l1-1 1-2Zm17 0-1 2 1 1h2v-3h-2Zm31 2 2 1h2v-2l-3-1-1 2Zm7 1-3-1v1h-2l2 2h2l1-2Zm-22 2 1-2-2 1 1 1Zm24 0-5 1 3 1 2-2Zm-44 13v-8l2-4-3 5-7 11-3 4-9 7-5 8 4-1 19 3h4l1-3 1-6-4-16Zm-11-7 1-3-3-1-2 4 2 1 2-1Zm38-3-1-1h-2l3 1Zm-6 5 1-4v-2h-2l-1 3-1-1 2 4h1Zm19-5-1 2 1 1 2 1-2-4Zm-8 7 2-1 1-1-2-3-2 2v3l1 1v-1Zm5-4-1 1 1 1 2-1v-1h-2Zm-48 3 1 2 1-5-2 1v2Zm65 0v-1l-1-2-2 3 1 1 2-1Zm-43 1h2v-3h-2l-1 1 1 2Zm30 2 2-1v-3l-2-1v5Zm-57-1v-3l-3 4h2l1-1Zm35 6h5l-4-4-2 1 1 3-1 2h-2v2l1 2h3l-1-4v-2Zm-3-2 1-1-3 1h2Zm11 0v2l1-2h-1Zm29 9-2-2h2-5v3l2 2 2-1-1-2 2 1v-1Zm-46-1 1 2 1-2h-2Zm12 0-2 1-1 2 5-1-2-2Zm11 0h-5l1 2h3l1-2Zm19 8 1 2 4-2-1-2h-3l-1 2Zm-41 2 1 1-1-3v2Zm12-1-1 1 1 3v-4Zm3 3 2 2 3-1-1-4-3 1-1 2Zm-13 0 1-1-2-1v3l1-1Zm26 2h2l1-2-3 2Zm-23 4 2 2 5-2-1-2h-5l2-1-1-2h-2v2l1 1h-2 2l-1 2Zm-10-4 1 2h2l-3-2Zm22 3-1-3v1l1 2Zm37 3-2-2-2 1-1 2 5-1Zm-51-1h-4v2l4-2Zm11 1v1h4l-1-2-3 1Zm-25 0-3 1 2 1 1-2Zm12 4 1-2h-1v2Zm44 0-1 2 4 1v-3l-1-1-2 1Zm-47 3-1-1h-1l2 1Zm5 2v-2h-1l1 2Zm-9 0 2-2-2 1v1Zm20 3h2l2-1v-3h-3l-1 4Zm17-1v-3l-2 1v3h3l-1-1Zm-7-2-1 2 1 1 2 1 1-2-3-2Zm-19 1-2 3v1h1l3-1-1-2-1-1Zm3 0v2l2 1-2-3Zm-33 4h2l-1-3-1 1v2Zm8-1 1 1 1-3-2 1v1Zm30 1h3l-4-2 1 2Zm-25 1-1-2-1 3 2-1-1 2 1 1v-3Zm-6-1-2-1-1 1 1 3 2-1v-2Zm28 2v3l1 1v-7l-4 1 3 2Zm-33 0-3-2-1 1v2l2 1 2-2Zm67-1-3-1 1 2 2-1Zm-45 1h1l-2-2 1 2Zm5-1-3 3 1 1v2l1 4 1-2 2-1v-3 2l2 2-1-4h1v-2l-2-2h-2Zm-9 7v-2h2l1-2-1-2h-5l1 1v1l-1 2v2h-4l1 4v1h2l1-3 1-1 2-1Zm20-6-1 2 2 2 3-2-1-2h-3Zm18 1-1-1h-2l-1 1 1 2 3-2Zm12-1-4 2 2 1 2-1v-2Zm-77 3-1-1-2 3h2l1-2Zm10-1-1 2 1 2 2-4h-2Zm54 1-1-1v2l1-1Zm26 1h2v-2l-3 1 1 1Zm-77-1 2 1v-1h-2Zm-17 0-1 2 1 1h2l-2-3Zm85 0 1 1h2l-3-1Zm-81 1 1 2h3l1-2h-5Zm91 2-1-1-1 1v2h3l-1-2Zm-73 0h-3v2h3l1 2 1-4-1 1-1-1Zm-11 3h2v-2l-2 2Zm-14-1-2-1-1 2v2l4-1-1-2Zm18 4-3-2 1 2h2Zm58-2v2l1 1v-3h-1Zm16 1-4-1v2h3l1-1Zm-50 0h-1v2l1 1 3-3-2-1-1 1Zm52 1h2l2 2 1-1-2-1-1-1h-2v1Zm-80 0-1 2h1v-2Zm35 4-1-2v-2l-3 2v1l2 1h2Zm-14-4-2 1h1l1-1Zm71 3-4-1 1 2 3-1Zm-105 3v-2l-1-1-2 1 1 3 2-1Zm-18-1 2 2 2-1 1-2-5 1Zm100 1v2l2 1 2-1-2-3-2 1Zm-16-1-1 1 1 1v-2Zm14 3 1 2 1-5-2 1v2Zm-41 0v-2l-1 3 1-1Zm25-1-1 1 1 2v-3Zm15 6 3-1-4-3v2l1 2Zm-78-3h-3l1 1 2-1Zm70 4h2v-2l-4 1 2 1Zm-27 0 1 1h4l-1-2-1-1-1 2h-2Zm37 9-2 1v3l4-3-2-1Zm-13 4v2h3l1-1v-2l-4 1Z" fill="#007DFA" fill-opacity=".1"/>
</svg>
