<svg width="749" height="414" fill="none" xmlns="http://www.w3.org/2000/svg">
  <path d="m78.1563 28.75-2-2-2-1.75-2-1.5 15.5 2.75 2 2 2 .5 1.75.75 2 .75 4 2 3.9997 2.5 2 1.5 2 1.25 1.75 1 2 .75 4 3 8 7 1.75 2 4 4 4 5-3.5 10.5-2-3.25-2-2.75-4-4.5-2-2-4-3.5-1.75-2-2-1.5-4-3.5-2-1.25-2-1-2-.75-1.9997-1.25-2-1.5-1.75-1.5-6-3-4-1.5-2-.5-2-2.25-1.75-2.25-2-2.25Zm33.4997-.5-4-3-2-1 23.5 4.5 2 1.75 1.75 1.75 4 3.5 2 2-3.5 9.5-2-2.25-2-2-2-1.75-2-2-4-3.5-1.75-1.5-2-1.75-2-1.25-2-1-2-.75-2-1.25ZM54.4063 35l-2-1.25-2-1.5-2-1.75 9.5-3.75 2 1 3.9999 2.5 2.0001 1.5 1.75 1.5 2 1.75 2 2 4 4.5 2 2 2 .5 2 .75 2 1 1.75.75 2 1 4 2.5 2 1.5 2 1.25 4 2L101.156 56l2 1.75 2 1.5 4 3.5 2 2 2 1.75 2 2 1.75 2.25 2 2.25 2 2.5 2 3.25 2 .5-3.5 7.5-2-.25-2-.5-2-3.25-2-2.75-4-4.5-3.75-3.75-2-1.75-2-2-1.9997-1.5-2-1.75-4-3-2-.75-2-1-1.75-1.25-4-3-6-3-4-1.5-1.75-.5-2-2-2-2.5-2-2.25-2-2-2-1.75-4-3L56.4062 36l-1.9999-1Zm52.7497 87.75-1.75-1-4-3-3.9997-1.5-2-.25-2-.5-2-3.25-.5-1-2-1-2.25-1.25-4.5-2-2.5-1.25-2.25-1-2.25-.75-2.25-.25-2.5-1.75-2.25-2-2.25-1.5-.25-6 2.25 1 2.25 1.75 2.5 2 2.25 1.75 2.25.25 2.25.75 1.75.75-1.5-1.25-6-5.25-1.75-1.5-2-1.5-2-.75-2-1-2.0001-1.25-1.9999-1.5-4-2.5-1.75-1-2-1-4-1.5-2-.5-2-2-2-2.5-2-2-1.75-2-2-2-2-1.5-8-5-2-1.5-2-1.75-1.75-.75-2-.5-2-2.25-4-4 5.5-7 2 1.75 2 2.25 2 2 2 .5 2 1 2 1.5 2 1.75 1.75 1.25 2 1 2 1.25 4 3 2 1.75 2 2 2 2.25 1.75 2.25 2 2 8 3 2 1 2 1.25 2 1.5.5.5 2-4.75 2.25 1 2.25 1.25 2.25 1.5 2.5 2 2.25 1.75 2.25.25 2.25.75 2.25 1.25 2.5 1 4.5 2 1.75 1-1.5-1.5-6-5.25-1.5-1.25-.5-.25-2.5-.75-2.25-.25-2.25-1.75-2.25-2.25-2.25-1.5-2.5-1 2-.75-1.75-1.25-4-2.5-4-2-1.75-.75-2-.75-2-.5-2-2-2-2.5-2-2-2-2.25-2-1.75-1.75-1.5-2-1.25-2-1.5-2-1-2-1.25-2-1.5-2-1.75-2-.75-2-.5-1.75-2.25-2-2.25 7.5-5 2 2.25 2 .5 2 1 1.75 1.5 2 1.75 2 1.25 2 1 2 1.25 4 3 2 1.75 1.75 2 4 4.5 2 2 2 .75 2 .5 2 1 2 .75 2 1 1.75 1.25 2 1.25 2 1.75 2 1.25 2 .75 2 1 2 1.25 2 1.75 1.75 1.5 4 3.5 2 2 1.9997 1.75 2 2 4 4.5 1.75 2.5 2 3.25 2 .5 2 .25 2 .75 2 1-3.75 8.5-1.75-1.5-2-1-2-.5-2-.25-2-.5-2-3.25-2-2.75-1.25-1.5.25 4-2.4997-1-2.25-1.25-2.25-1.5-4.5-2-2.5-1-2.25-1.25-2.25-.5-1.25-.25.75.75 2 1.75 3.5 3.5.5.25 2.25 1 2.5 1 4.5 2.5 4.4997 2 .25 5.25-2.2497-.5-2.25-.75h-.25l.5.5 2 3 1.9997.75h1.75l2 .75 2 1 2 1.25 2 1.5-3.75 8.25Zm23-52.25 6.25-16.75 1.5-2 1.5-1.75 4.75-4.75 4.5 3.75-1.5 1.5-1.5 1.25-1.75 1.75-1.5 1.75-1.5 2-1.5 2.25-1.5 1.75-3 4-1.75 2-1.5 1.75-1.5 1.5Zm16.5-15 1.75-1.5 3-3 3 5-1.5 1.5-1.75 1.5-7.5 10-1.75 2-1.5 2-1.5 1.75-1.5 1.5-3 2.5-1.5 1.75-1.75 2-6 7-1.5 2-1.75 1.75-1.5 2 6.25-16.25 1.75-2 1.5-1.75 1.5-1.5 1.5-1 1.5-1.5 1.5-1.75 1.5-2 1.75-2 7.5-10Zm7.25 5.75 1.75-1.75 1.5-1.25 3 5-1.75 1.5-6 8-1.5 1.75-1.75 2-3 4-3 2.5-1.5 1.5-1.5 1.75-1.75 1.75-1.5 2-1.5 1.5-1.5 2-3 3.5-1.75 2-1.5 2-3 3.5-3 4-1.5 2.75-1.75 3-1.5 2.75-1.5 2-1.5 1.75-1.5 2.5-1.5 2.25 6.25-20.5 1.5-2.25 4.5-5.25 1.5-2 1.75-2 3-3.5 1.5-2 3-3.5 1.75-1.75 1.5-2 3-2.5 1.5-1.5 1.5-1.75 1.5-2 1.75-2 1.5-1.75 6-8ZM92.9063 149l2 1.75 2 2-3.75 9-2-1.75-1.75-2-2-2-2-1.5-2-1-2-1.25-2-1.5-2-1.25-2-1-1.75-.75-2-.25-2-.5-2-3.25-2-2.5-4-4.5-2-2-2-1.75-1.75-2-4-3.5-2-1.5-2-1.75-2-1.25-2-1-2-.75-1.75-1.5-2-1.5-4-2.5-2-1-2-.75-2-1-2-.5-1.75-.75-2-2-4-4.5-2-2-2-1.75-4-3-2.00005-1.25-1.75-1.25-2-1-2-1.75-2-1.5 1.75-8.5 1.75.25 2 1 2 1.5 2.00005 1.75 2 1.25 2 1 2 1.25 2 1.5 1.75 1.5 2 1.75 2 2 6 6.75 2 .5 4 1.5 1.75 1 4 2 4 3 2 1.25 2 .75 2 1 1.75 1.25 4 3.5 2 1.5 2 2 4 3.5 1.5-3.25 2.5.5 2.25 1.25 6.75 3 2.5 1.5-1.25-2-2-2.5-1.25-1.75-1.25-.25-2.25-1.25-2.25-1-2.25-.75-2.25-.25-.25-6.5-2.0001-2-1.9999-1.5-2-1.75-2-1.25-4-2-2-1.25-2-1.5-1.75-1.25-2-1.25-4-2-4-1.5-2-.5-2-2-1.75-2.25-2-2.25-2-2-2-1.75-4-3-4-2.5-2-1-1.75-1.75-2-1.75-2-.75-2.00005-.5-2-2.25-2-2 3.75-9 2.00005 1.75 1.75 2.25 2 2.25 2 .25 2 1 2 1.5 2 1.75 2 1.25 2 1 1.75 1.25 4 3 2 1.75 2 2 6 6.75 2 .5 1.75.75 4 1.5 2 1.25 2 1 4 3 2 1.25 1.75.75 2 1 2 1.25 2 1.75 2 1.5 2 1.75 1.75 1.5h.5l2.5.75 2.25 1 2.25 1.25 2.25.75 2.5 1 2.25 1.5 2.25 1.25 2.25 1 2.25.75 2.5.75 4.4997.5.25 5-4.4997-.5-2.5-.25-4.5-1.5-2.25-1-2.25-1.25-2.5-1.25-1.25-.75 1.25 1.5 2 2.75 1.5 2.25 2.25 1 1.5.5h.75l2 .75.5.25 2 .25h2.25l2.4997.5.25 3.75.25.25 2 1 2 1.5-3.75 9.25-2.2497-2.25-1.75-.25-4.5-1-2.25-.25h-2.5l-4.5-1.5-2.25-1-2.25-1.25-2.5-1.5-6.75-3-2-.75 1.5 1.75 2 2.25 1.25 1.75.5.25 2.25 1 2.25 1.25 2.25 1.5 2.5 1 2.25.75 2.25.5 4.5.5 2.5.5 2.25.5h2.25l-4.25 4.75-2.5-.5 1.5 1.25Zm66.7497-80.25 1.5-1.75 3 5.25-1.5 2-1.5 2.25-1.5 1.75-1.5 2-1.75 2-1.5 2-1.5 1.75-1.5 1.5-3 2.5-1.5 1.75-1.75 2-6 7-1.5 2-1.75 2-1.5 1.75-1.5 2-3 3.5-1.5 2.25-1.5 2.75-1.75 3-1.5 2.5-3 4-1.5 2.25-1.5 2.5-1.75 2-1.5 1.75-1.5 1.5-1.5 1.75-1.5 2-1.5 2.5-1.75 3-1.5 2.75-1.5 1.5-3 3.5-1.4997 1.5 6.2497-18.25 1.5-2 3-3.5 1.5-1.5 1.75-2 1.5-2.5 1.5-2.25 3-4 1.5-2.5 1.5-3.25 1.75-2.5 1.5-2.25 3-3.5 1.5-2 1.5-1.75 1.75-2 1.5-2 6-7 1.5-2 1.75-1.75 3-2.5 1.5-1.5 1.5-1.75 1.5-2 1.75-2 6-8Zm-46 102-1.5 1.5-4.5 5.25-1.5 2-4.75 4.75-5.2497-21.5 1.5-1.75 1.5-1.5 1.4997-1.25 1.75-1 1.5-1.5 1.5-2 3-3 1.5-3 1.75-2.75 1.5-2.5 1.5-2 4.5-5.25 1.75-2 3-4.5 3-4 1.5-2.75 1.5-3 1.75-2.75 1.5-2 1.5-1.75 1.5-2 1.5-1.75 1.5-2 1.75-2 7.5-8.75 1.5-2 3.25-3.25 1.5-1 1.5-1.5 1.5-1.75 1.5-2 1.75-2 3-4 3.75 23.75-1.5 1.25-1.75 1.75-1.5 2-6 7-1.5 2-1.75 2-1.5 1.75-1.5 2-3 3.5-1.5 2-1.75 2.75-1.5 3-1.5 2.75-3 4-1.5 2.25-1.75 2.5-1.5 2-1.5 1.5-3 3.5-1.5 2-1.5 2.5-1.75 3-1.5 2.75-1.5 1.5-3 3.5-1.5 1.5-1.75 1.25-1.5 1ZM72.6563 83.5l-2.25-1.25-2-1 1 1 2 1.25 2 .75 1.5.75-2.25-1.5Zm18.25 91.25-3.75 9.75-2-2.5-2-2.75-1.75-2.25-2-1.75-4-4-2-1.5-2-1-2-1.25-2-1.5-1.75-1.25-2-1-2-.75-2-.25-2-.5-2-3.25-2-2.5-4-4.5-1.75-2-2-1.75-2-2-4-3.5-2-1.5-2-1.75-2-1.25-1.75-1-2-.75-2-1.25-2-1.75-4-2.5-2-1-2-.75-1.75-.75-4-1.5-2-2-4.00005-4.5-2-2-2-1.75-1.999999-1.5-.250001-11 2 1 2 1.25 4 3 2.00005 1.75 1.75 2 2 2.25 2 2.5 2 2 2 .5 4 1.5 4 2 1.75 1 4 3 2 1.25 2 1 2 .75 4 3 1.75 1.75 2 1.5 2 2 4 3.5 2 2 4 4.5 1.75 2.75 2 3.25 2 .5 2 .25 2 .5 2 1 2 1.25 2 1.5 2 1.25 1.75 1.25 2 1.5 2 2 2 1.75 2 2 2 2.25 2 2.5Zm76.4997-64-.25 5.75-4.5 5.25-1.75 2-1.5 2-1.5 1.75-1.5 2-1.5 1.75-1.5 2-1.75 2.75-1.5 3-1.5 2.75-3 4-1.5 2.25-1.75 2.25-1.5 2-4.5 5.25-1.5 2-1.5 2.5-1.75 2.75-1.5 3-3 3-1.5 2-1.5 1.5-1.75 1-1.5 1.25-1.5 1.5-3 3.5-5.75 1.5 1.5-2 4.5-5.25 1.5-1.5 1.75-1 1.5-1.25 1.5-1.5 3-3.5 1.5-1.5 1.5-2.75 1.75-3 1.5-2.5 1.5-2 3-3.5 1.5-1.5 1.75-2 1.5-2.5 1.5-2.25 3-4 1.5-2.5 1.5-3.25 1.75-2.5 1.5-2.25 3-3.5 1.5-2 1.5-1.75 1.75-2 1.5-2 6-7Zm-5 20.25 1.5-1.75 1.5-2 1.75-1.75-.5 6-4.5 5.25-1.5 2.25-1.75 2.75-1.5 3-1.5 2.75-1.5 2-1.5 1.75-1.5 2.25-1.75 2.5-1.5 2-1.5 1.75-1.5 1.5-1.5 1.75-1.5 2-1.5 2.75-1.75 2.75-1.5 2.75-1.5 1.5-3 3.5-1.5 1.5-6 .25 1.5-1 1.75-1.25 1.5-1.5 1.5-2 3-3 1.5-2.75 1.75-3 1.5-2.5 1.5-2 4.5-5.25 1.75-2 3-4.5 3-4 1.5-2.75 1.5-3 1.75-2.75 1.5-2 1.5-1.75 1.5-2Zm-85.4997 56.5 4 5 2 2.25-11.5-.25-2-2.25-2-1.75-4-4-2-1.5-2-1-1.75-1.25-2-1.5-2-1.25-2-1-2-.75h-2l-2-.75-2-3-2-2.75-1.75-2.25-2-2.25-2-2-2-1.75-2-2-4-3.5-2-1.5-1.75-1.75-2-1.25-2-1-2-.75-2-1.25-4-3-2-1-1.75005-1.25-6-2.25-.25-12.25 1.75 2.5 2 2 2 .5 4.00005 1.5 4 2 4 2.5 1.7499 1.5 2.0001 1.25 2 1 2 .75 4 3 4 3.5 1.75 1.75 4 3.5 2 2 4 4.5 2 2.75 2 3.25 1.75.5 2 .25 2 .5 2 1 2 1.5 6 3.75 2 1.5 1.75 2 2 1.75 2 2 2 2.25Zm10.75-54 1 .25-1.25-.5-2-.75h-.75l3 1Zm74.2497 14.75 1.5-3 1.75-2.75 1.5-2.25-2 10-1.5 2.75-3 4-1.5 2.25-1.75 2.25-1.5 2.25-1.5 1.5-3 3.5-1.5 2-1.5 2.5-1.75 3-5.75 2 1.5-1.5 1.5-2.75 1.75-2.75 1.5-2.5 1.5-2.25 1.5-1.75 1.5-1.5 1.5-1.75 1.75-2 1.5-2.5 1.5-2.25 1.5-1.75 1.5-2 1.5-2.75ZM53.1563 192l2 1.25 2 1.5 2 2-21.5-3-2-.25-1.75-.5-2-3.25-2-2.75-4-4.5-2-2-4-3.5-2-2-1.75-1.5-2-1.75L3.90625 154.5l4 2.5 2 1.5 2.00005 1.25 1.75 1 2 .75 4 3 8 7 1.75 2 4 4 4 5 2 3.25 2 .5 2 .25 1.75.75 2 .75 4 3 2 1Zm83.7497-11.25.5-2.25 1 .25-.5 2.25-1 4-.5 2.5-1-.25.5-2.5 1-4Zm-5.5 3 .5-1.75.25-2h1l-.5 2-.25 2-.5 2.5-1 6h-1l.5-3.25.5-3 .5-2.5Zm-10.5 3.75.5-3 .5-2.5 1.5-1.75-.5 2-.5 2.5-.5 3-.25 3-1 5.5-1-.25 1-5.5.25-3Zm5.25-2 .5-2.5.5-2 1 .25-.5 2-.5 2.25-.5 3.25-.5 3-.5 2.75-1-.25.5-2.75 1-6Zm-10.25 4.25.5-3 .5-3.25 1.5-2.25-.5 2.5-.5 3-.5 3.25-.5 2.75-1 5-1-.25 1-5 .5-2.75Zm-5.25 1.75.5-2.75.5-3 1.5-2.75-1 6-.5 2.75-1 5-.25 2.5-1-.25.5-2.25.25-2.75.5-2.5Zm-4.5-.75.5-2.75 1.25-3-.25 3-1 5.5-.5 2.5-.5 2.25-.5 2.5h-1l2-10Zm-4.75-1 1.5-2.5-.5 2.75-2 10-.9997-.25 1.9997-10ZM95.9063 194l.5-2.5.25-2.75 1 .25-.5 2.5-.25 2.75-.5 2.25-.5 2.5-.5 2.75-1-.25.5-2.75.5-2.5.5-2.25Zm-4.25-3.5 1 .25-1.5 7.5-.5 2.75-1-.25.5-2.75 1.5-7.5Zm-6.25 6.5.5-2.5.5-2.25h1l-1 5-.5 2.75-.25 2.75h-1l.5-3 .25-2.75Zm273.2967-74c0 3.167-.083 6.5-.25 10-.167 3.333-.667 6.417-1.5 9.25-.5 1.333-1.25 3-2.25 5-.833 1.833-1.583 3.5-2.25 5-.5 1.167-1.333 3.75-2.5 7.75-1 3.667-1.917 6.333-2.75 8-.667 1.667-2 4.167-4 7.5-.833 1.167-1.917 3.083-3.25 5.75-.5.667-1.333 2.417-2.5 5.25-1 2.333-1.833 4.083-2.5 5.25-2 3.167-4.583 5.583-7.75 7.25-2.167 1-4.417 1.667-6.75 2-2.333.333-5.333.583-9 .75-3 0-5.167.083-6.5.25-1.833.167-4.583.583-8.25 1.25l-8.25 1c-1.5.167-3.833.25-7 .25h-8c-3.5 0-6.167.083-8 .25-3.667.333-7.25 1.083-10.75 2.25l-5 2.25c-.333.167-1.333.667-3 1.5s-3.333 1.417-5 1.75c-1 .333-1.917.5-2.75.5-.167 0-1.25-.25-3.25-.75-1 0-1.667-.083-2-.25-1.5-.667-3.917-2.667-7.25-6-4.333-3.667-7.417-6.5-9.25-8.5l-3.75-4.5c-2-2.5-3.25-3.917-3.75-4.25-2.167-2.5-5.083-4.833-8.75-7l-4.5-2.25c-1.833-1.167-3.417-2.25-4.75-3.25-2.833-2.167-5-4.833-6.5-8-1.333-3.167-2.667-7.25-4-12.25-1.333-4-2.167-7.083-2.5-9.25-.167-1.167-.25-2.833-.25-5 0-2.667.167-4.667.5-6 .333-1.333.833-3 1.5-5 .833-2.167 1.417-4 1.75-5.5.333-3.333.5-6 .5-8l-.25-13.75V98c0-2.5-.083-4.3333-.25-5.5-.333-1.1667-.833-2.8333-1.5-5-.5-2.3333-.75-4.25-.75-5.75s.333-3.25 1-5.25c.333-1.1667 1-2.6667 2-4.5 1-2 1.833-3.75 2.5-5.25s1.167-2.8333 1.5-4c.333-1.1667.583-2.0833.75-2.75 1-3.1667 1.917-5.75 2.75-7.75s2-3.9167 3.5-5.75c2-2.3333 5.333-4.75 10-7.25 4.333-2.6667 7-4.5 8-5.5s1.917-1.9167 2.75-2.75c.833-1 1.583-1.8333 2.25-2.5 3.333-4 6.333-6.75 9-8.25 1.5-1 2.5-1.5 3-1.5.167-.1667.5-.1667 1 0h1c1.5 0 2.667.0833 3.5.25.667 0 1.583.1667 2.75.5 1.167.3333 2 .5 2.5.5.333 0 2-.25 5-.75.833-.3333 1.667-.6667 2.5-1 1-.3333 1.917-.6667 2.75-1 3.167-.8333 6.75-1.4167 10.75-1.75l6.25-1c5.667-1 10-1.5 13-1.5 2.667 0 5.667.4167 9 1.25 3.667.8333 7 2.3333 10 4.5 1 .8333 2.333 2 4 3.5 1.833 1.5 3.417 2.5833 4.75 3.25 1.667.8333 4.417 1.4167 8.25 1.75 3.333.3333 5.75.8333 7.25 1.5 2 .6667 4.583 2.4167 7.75 5.25 1.667 1.6667 3.417 3.0833 5.25 4.25 1.333.6667 3 1.4167 5 2.25 2.167.8333 3.75 1.6667 4.75 2.5 0 0 .667.6667 2 2 1.167 1 1.75 1.6667 1.75 2 .167.3333.25.8333.25 1.5.167.5.333.9167.5 1.25.333 1 .5 2.4167.5 4.25l-.25 5c-.333 2.3333-.5 4-.5 5 0 .8333.167 2.25.5 4.25.333 1.5 1 3.1667 2 5s1.75 3.1667 2.25 4c3 4.8333 4.917 9.1667 5.75 13 .333 1 .5 1.9167.5 2.75 0 .5-.083 1.0833-.25 1.75-.167.6667-.25 1.25-.25 1.75-.167.1667-.25.4167-.25.75.167.3333.167.5833 0 .75l-2 2.25c-.333.167-.667.417-1 .75-.167.333-.417.583-.75.75h-.5l-2-.5c-.167 0-.5.083-1 .25-.5 0-.833-.083-1-.25l-.75-1.25-2-3.25c-.833-2-1.5-3.8333-2-5.5-.667-2.3333-1.333-4.1667-2-5.5-.333-.6667-1.833-3.5-4.5-8.5-1.667-2.1667-2.917-4.25-3.75-6.25-1-1.8333-1.583-3.5833-1.75-5.25-.333-1.3333-.75-3.0833-1.25-5.25-.333-2.1667-.833-3.9167-1.5-5.25-.667-1.1667-2.167-2.9167-4.5-5.25-4-4.3333-8-7.1667-12-8.5-2.333-.8333-4.583-1.3333-6.75-1.5-4.333-1-7.583-2-9.75-3-1.167-.5-2.667-1.3333-4.5-2.5-1.833-1.1667-3.417-2.1667-4.75-3-4.833-2.3333-10.583-3.5-17.25-3.5-8.167 0-15.083 1.4167-20.75 4.25-1 .5-2.5 1.4167-4.5 2.75-.5.3333-1.333.8333-2.5 1.5-1 .6667-1.917 1.1667-2.75 1.5-1.833.8333-3.5 1.4167-5 1.75h-1.5c-1.833 0-3.167-.0833-4-.25-2.667-.5-4.417-.6667-5.25-.5-.333 0-.667.0833-1 .25-.333.1667-.667.3333-1 .5l-2.5 1.25c-.5.3333-.917.75-1.25 1.25-.167.3333-.333.5833-.5.75-.5.8333-1.167 2-2 3.5-.833 1.3333-1.667 2.4167-2.5 3.25-1.167 1.5-2.75 3.0833-4.75 4.75s-3.417 2.9167-4.25 3.75c-3 2.6667-6 5.8333-9 9.5-2.667 3-4.167 4.9167-4.5 5.75-1 1.6667-1.5 3.4167-1.5 5.25 0 .1667.25 1.25.75 3.25.167 1.8333.667 3.6667 1.5 5.5 1 3.6667 1.5 6.5 1.5 8.5 0 1.3333-.167 3-.5 5-.167 2-.333 3.667-.5 5l-.5 11.25c-.333 3.833-.833 7.5-1.5 11l-1.5 5.25c-.167.833-.583 2.5-1.25 5-.667 2.333-1 4.583-1 6.75 0 2.5.417 5.083 1.25 7.75s2 5 3.5 7c1.833 2.333 5.083 4.5 9.75 6.5 4 1.667 6.833 3.25 8.5 4.75 1.333 1.167 2.583 2.583 3.75 4.25 1.333 1.667 2.167 2.75 2.5 3.25l4.25 5.5c3.833 3.833 8.333 6.833 13.5 9 2.833 1 5.417 1.5 7.75 1.5 1.167 0 2.5-.083 4-.25 1.667-.167 2.917-.333 3.75-.5.667-.167 1.5-.333 2.5-.5 1-.167 2.25-.25 3.75-.25 4.667-.333 8.25-.5 10.75-.5 4.833 0 8.417-.167 10.75-.5 2-.167 3.75-.417 5.25-.75s2.75-.583 3.75-.75c2.5-.667 4.583-1.083 6.25-1.25 1.167-.333 3.167-.5 6-.5l8 .25c6.167 0 10.667-1.167 13.5-3.5 2.667-1.667 5.167-4 7.5-7 2.333-3.167 4.25-6.417 5.75-9.75 1-2.5 1.917-5.25 2.75-8.25 1-3.167 1.667-5.333 2-6.5.5-1.5 1.333-3.75 2.5-6.75 1.333-3 2-5.917 2-8.75 0-1.333-.167-3.333-.5-6-.333-2.667-.5-4.667-.5-6 0-2 .25-3.833.75-5.5.667-2.333 2.083-4.583 4.25-6.75l1.5-1.5c.5-.167 1-.167 1.5 0 .5 0 1-.083 1.5-.25h1c.5-.167.833-.167 1 0 .333.333.667.75 1 1.25.333.333.583.667.75 1 .167.167.417.5.75 1 .333.333.583.75.75 1.25.167.167.167.583 0 1.25v1.5c.167.667.25 1.667.25 3Zm-66.75 8.5c.333.5 1.083 1.667 2.25 3.5 1.333 1.833 2.167 3.667 2.5 5.5l.25 1.75c0 .833-.417 2.917-1.25 6.25-1.833 6-4.667 10.333-8.5 13l-2.25 1.75c-.5.167-1.417.25-2.75.25-1 .333-1.833.5-2.5.5-2.667 0-6.333-1.25-11-3.75-1-.333-2.5-1-4.5-2-1.333-.5-3.083-1.083-5.25-1.75-2.167-.833-3.917-1.667-5.25-2.5-2.667-2-5.083-4.833-7.25-8.5-2.667-4.667-4-9-4-13 0-2 .417-4.25 1.25-6.75.833-2.667 1.417-4.667 1.75-6 .167-1 .25-2.5.25-4.5l-.25-9.25c0-4.167.667-8.8333 2-14 1.5-5.3333 3.5-9.8333 6-13.5 2.833-2.8333 6.667-5.4167 11.5-7.75 5-2.3333 9.583-3.5 13.75-3.5 3.667 0 6.5 1 8.5 3 2.833 2.1667 5.083 5.0833 6.75 8.75 1.667 3.6667 2.25 7.1667 1.75 10.5-.167 2.3333-1.333 5.1667-3.5 8.5l-2.75 6.25c-1 3.5-1.333 8.25-1 14.25 0 3.333.333 6.083 1 8.25.333.833.75 1.667 1.25 2.5.5.667.917 1.417 1.25 2.25Zm-15.25-.75c-2.333-5-3.5-9-3.5-12 0-1.833.333-3.583 1-5.25.667-1.667 1.333-3.25 2-4.75.833-1.5 1.417-2.583 1.75-3.25 2.333-4.5 3.75-8.9167 4.25-13.25 0-1.6667-.25-3.5-.75-5.5l-.5-2c-.333-.5-.75-.8333-1.25-1-.333-.3333-.583-.5833-.75-.75-.333-.3333-.667-.6667-1-1-.333-.3333-.667-.5833-1-.75-.5-.1667-.917-.1667-1.25 0h-1c-1.333-.3333-2.5-.5-3.5-.5-1.667.3333-3.333 1-5 2-1.833 1.1667-4 3.75-6.5 7.75-3.333 5.6667-5 10.5-5 14.5 0 1.5.5 3.583 1.5 6.25.167.5.417 1.417.75 2.75.333 1.167.5 2.333.5 3.5 0 1.333-.333 3.083-1 5.25-.5 2.167-.75 3.75-.75 4.75-.167.5-.25 1.083-.25 1.75.167.5.25.833.25 1 0 .333-.083.833-.25 1.5 0 .5.083.917.25 1.25.333.667.833 1.417 1.5 2.25.167.333.333.75.5 1.25.167.333.417.667.75 1 .5.333.917.667 1.25 1 .333.167.667.333 1 .5 1.5 1 3.25 2 5.25 3 2.167.833 3.583 1.417 4.25 1.75l2.5 1.25c.333.167.75.25 1.25.25.667-.167 1.167-.25 1.5-.25.167 0 .5.083 1 .25.667 0 1.083-.083 1.25-.25.167-.167.333-.583.5-1.25.333-.667.583-1.083.75-1.25.5-1 .75-1.667.75-2v-.5c0-.833-.167-1.583-.5-2.25-.5-2-1.333-4.333-2.5-7ZM538 103.25v26.25l.75 13.5-2 4.25L534 157.5l-3.25 4.75-5.75 13.5-4 3.75-6.75 6.75-9.5 6.25-4.75 2.75-5.5.5-9.5 2.5-5 2.75-10 2.75-4 1.25-11-1.5-7-.25-6.5-.75-5 .25-5-1.25-9.25-1.75-5-3-4.75-1.5-3.75-2.5-10.25-2.25-8.75-6.5-4.25-4-2.75-5-4.25-10.25-1.75-6-3-3.75-2.5-12 .75-5.25.25-13-3.75-12 .5-6.25v-5.25l1.75-7.5.75-6.25L373 82l1.25-5.75 1.5-5 1.5-9.25 6.25-8.5 6.25-7.75 3-3.75 10-6 7.5-3.75 3.5-2.25 4.5-1.5 16-3.5h5l5-.75L455 23.5l10.25-.5 6.5 1.75L485 27l9 4.25 10.25 3.5L508 37.5l13.25 7.75L526 55.5l6.5 10.5 2.25 6.25 1 7 1 4.5-.25 4.5.25 9.5 1.25 5.5ZM452.5 28.5l-2.5.25v1.5l1.5.75 1-2.5Zm-4 8-1.25-.5-1.75 2.25 1.5 1.5-.5 2.5 2.75 1 .25-1.25 1-1.25 1.5-1.25 1.75-1.5-.5-2.25-2-.75-.75-1.25-2 2.75ZM434.25 35l-3.25-.5-.25 2 1.5 1.25 2-.75v-2Zm8.75 3.5-2.25-1.25-2 3.75 2 1.25L443 41v-2.5Zm26 .5-1.5-1.5-2.25.75 1 .5-.5 1.25 1.5-1.5 1.75.5Zm23 2-1.25-3.25-1.25 1.5.75 1.5L492 41Zm-66-1.25L422.25 42l1.25 2.25L426 44l1.25-2-1.25-2.25Zm39.75 3-2-2-2 .75 3.5 2.75.5-1.5Zm-66 5-1-1.25-.5 2.5 1.25-.5 3.5-1.75.5 2 2-4.25-1.25-.75-.75-2.25-1.25 2.75-1.75 1.5-.75 2Zm44.25-3.5.25-2.5-1 1.25.75 1.25Zm-13.25-1.5-1.5-.75-1.75.75 1 2.25 2.5.25-1.5-1h1.5l-.25-1.5Zm45 .5L473.5 43l-1.25 2 3.5-1.75Zm16.75 3.25 1-2.75-1.25.25-.75 1.25 1 1.25Zm-21 2 1-2-1.25-1.75H469l.25 4 2.25-.25ZM404 48l1.75-.5.5-2L404 48Zm25.5.75 1.5-.25-.5-2.5-1.5.25.5 2.5Zm9.25 0-.25-2-1.75-.75.25 4 1.75-1.25Zm7-2.25 3.75 1-1.75-1.5-2 .5Zm-2 3.75.5-1.5-1-1.25-1.5.5.5 2.5 1.5-.25Zm-34-1-.25-1.5-2.5 1.75-2.25-.5-1.75.5-1.5.5-.5 1.5 1.25 1 1.25-.5.25 1.25 4.25-1.5-.75-2 1.25.5 1.25-1Zm23.75 1 1.75-.25-2.25-1 .5 1.25Zm-35.25 8.25 3 1-1.25-4.75v-2.5L398.75 54l-1.25.5 1.25-3.75-2 .25-1 2 1 2v2.25l1.5 1.25Zm-9 1.75h3.5l1-2.5 1.75-4-.25-.75-1-1.75-3.5 3.5-.5 2.25-2.25-.25 1.25 3.5Zm53.5-5.5v-1.5l-1.25-.75 1.25 2.25Zm32.5-1.25 1 3.75.5-2.25-1.5-1.5Zm40 3.5 2 1-2.25-3.25.25 2.25Zm-87 2.5 1.5-2-2.25-1.5-2.25 1.25v2.5l2 1.25 1-1.25-.25 2 1.75 1.25 2-2.25-1-1.5-2.5.25Zm43.5-2V60l4.5-2.5-2.25-1.25-2.25 1.25ZM432 59l2.5-.25v-1.5l-1.75-.25-1 .75L432 59Zm-44-.75-1.5-.5-1 1.25.25 1.25 2.5-.75-.25-1.25Zm73.5-.5-.75 1.5-1.75.5 3.75.75-1.25-2.75Zm-4.75 3.5-1.5-1.5h-1.5l-1.5-1.75-.75 2 1 2.75 3.75.75.5-2.25Zm43-.75-3-2.5-1.5 1.75L496 62l2.75 1 2-.75-1-1.75Zm-94.25-1.75-1.75 1.5L405 60l.5-1.25Zm6.5 2.75-.5-2-2-.5 1.25 3.75L412 61.5Zm110.5 1.25-.25-3.5-1 1.75 1.25 1.75Zm-38.25 0-.25-2-3 2.5 1.75.75 1.5-1.25ZM389.5 61.5l-2 1.25 4.75 2.25-2.75-3.5Zm36.25 3.5 1.75 1 1.75-1-1.75-3-1.75 1v2ZM410 66.5l.5-1.75-1.5-1.5-.75 4 1.75-.75Zm41.5-1.5 3 .75-.5-1.5-1.25-.25-1.25 1Zm-30.25 4.25 2-1 .25-2.25-1.75-1.25-1.25 1.5-1 1.5 1.75 1.5ZM431 68l1.25-1.25-.5-1.75-1.75-.25 1 3.25Zm34.25 2.5 1.75-1.75-.75-2.5-2.5-.5L462.5 68l-1-.75-1.25-2.25-3.75 1.75 1 2.25 2.5.25.75-1.25.5 1.5 2.5-.25 1.5 1.25Zm44-5-1.5.5-.25 1.5 1.75-2Zm14 4.25.5-2.5-2.5.75.5 1.5 1.5.25Zm-32.75 0-1.5.75v1.75l1.5 1v-3.5ZM383 73.5l-1.5-3.25-1 1.25.75 1.75 1.75.25Zm101.75 0 .25-2-1.75-1 1.5 3Zm25 2.25-3-3.25-.5 2.25 1.5 1.5 2-.5ZM472 144.5l.25-4-1-11.25 2.25-10.75-.75-9-.5-23.25-3.5-9.75-3-3.25-5.75-.5-5.75 1.25-10.5 1.5-5.25 1.5-1.75 5.5-.5 15.75-1.25 5 .25 5.25.25 11.5.5 4.25-1 5.5 1.25 10 4.75 9.75 3.25 2 10 4.25 4.25-2.75 9.75-5.75 3.75-2.75Zm-83-71-2 .75 3.75 1L389 73.5Zm134 0-.25 1.75 1.5 1L523 73.5Zm-23.75 2L500 77h1.5l-1.25-2.75-1 1.25Zm-108 1.5 1.25-.5-1-2-.25 2.5Zm105-2.5-1.5.25-.5 1.25 2-1.5Zm23 2.25-2.25-1-2 1.75.5 2.5 4.25-1-.5-2.25ZM482.5 77l-2.25-1-2 1.25 4.5 2.25-.25-2.5Zm12-.25 1.75 1-.25-1.5-1.5.5Zm-6.5 0-1.75-.25-1 1.5 2.25 1.75 1.25-1.25-.75-1.75Zm-58.25.25.75 2.25 2.25.25-3-2.5ZM397 78.75l-1.25-1-1.25.5 2.25 2 .25-1.5Zm-6.5 1-.5 2 2.75-2.5-2.25.5Zm-8 3L385 81l1.25-1.5-1.5.5-3.75 1.5 1.5 1.25Zm122.75-.5.5-1.25-2-.5 1.5 1.75Zm-81 1.25 1.25 2.25h2.5l-2.5-4.5-1.25 2.25Zm-18.5-.75L405 81.5l-1.5.25-.75 1.25 3-.25Zm104.5 2.5L511.5 84l-.25-1.75-3 .75.5 1.75 1.5.5ZM523.5 88l.25-1.25-.25-2.75-1.75 1.25V87l1.75 1Zm6.25-3.5.5 1.75 1.5.5L533 85.5l-3.25-1Zm-3 3.75-.5-3.5-.75 2 1.25 1.5Zm-106.75-2-1.5 2 5 .5-1.25-2.25-2.25-.25Zm76.5.5-1.75-.25-1 1.5.75 1.5 2-2.75Zm-12.25 1.5.5 1.25 2.5-.5-1.75-2-1.25 1.25Zm-77 1.25 1 1.75 1.75-4-1.75.5-1 1.75ZM482 89v-1.5l-2.5 2 2.5-.5Zm43.75.25-2.25 2 2.25-.5L526 89v-1.25l-2.25.25 2 1.25Zm-9.25-1 1.5 2-.25-1.5-1.25-.5Zm-106.25 1.5-.75 1.5 2 2.5 1.25-4.75-.25.5-2.25.25Zm97.75 3.5 3.25 2 1.25-2-1-1.75-2.25-.25-1.25 2Zm-102.5-1.5-1.75 1.75 4.25-1.25-2.5-.5Zm121 1.75-.75 1.75 2.75-2-2 .25ZM412.25 96l1.75 2 1.25-.75-.25-1.5-1.5-.5-1.25.75Zm-10.5.75H403l.5-1.25-1.75 1.25Zm89.5 2.25.5-2.25L489 99.5l2.25-.5Zm-92-.5 1.25-.25.75-1.25-2 1.5Zm98.25 1 .5-1.75-2.25 2 1.75-.25Zm-9.75.5.5 1.25 2-.75-2.5-.5Zm21.75 3.5-.75-2-1.25.5 2 1.5Zm-97 1.5 1.25.75 1.25-2.5-1.25-.5-1.25.75v1.5Zm116.75-2 .5 1.25 2-1-2.5-.25Zm-133 2.5 1.5-.5.25-1.25-1.75 1.75Zm108.75.25 1 1.25 1.5-.25-2-2.25-.5 1.25Zm13.5 1 1 2.25 1.75 1 1.75-1-2.75-1.5 1.75-1.75-2-.5-1.5 1.5Zm-101 1.5 1.5.25.75-1.25-.75-1.5-2.25 1.25.75 1.25Zm71.25.5 2.5-2.75-2 .75-.5 2ZM512 111l-.75 2.5 3-3-2.25.5Zm-11.5 1-2 .25v1.25l2-1.5Zm-8 .5-1.5-.25 2 1.5-.5-1.25Zm20.75 1.75 1.25-.75H512l1.25.75Zm-15.75-.5 1.75 1.5 2.5-.75-4.25-.75Zm23.75 1.5v2h3.5l-.25-2-1.75-1-1.5 1Zm-13-.75-.5 2.5 1.75.75h1.5l1-1.5-2.5 1.25-1.25-3Zm-98.25.25-1 2 1.25 1.75-.25-3.75Zm69 2.75.75-1.75-2.75 2 2-.25Zm35 1.75 2.5.75 1.75-1.5-.5-2.5-4.25.75.5 2.5Zm-27.5.5 1.25-.75-2.25-1.25 1 2Zm29.75 4 1.25-.75v-1.5L515 123l1.25.75Zm-26.25 0 1.25-.75h-2.75l1.5.75Zm-11 1.5 1.5 1.75 2.5-1.25-1-1-.25-1.25-.5 1.5-2-1-2.25.5 2 .75Zm25.5 2 1.75-.75.25-1.75-2 2.5Zm21.75-1.5v2l1.75-3-1.75 1Zm-34 1-1-1.5h-1.75l2.75 1.5Zm2.25 1.25.75 1.75.5-3.5-1.25 1.75Zm19-1-2.5.25 1.25.5 1.25-.75Zm-22 .25 1.25 2 1.75 1.75-1.25-2.5-.5-1.25h-1.25Zm21.75 2.25.25 2.5 1.75-4-2 1.5Zm-26 2.25 1.5-1-3.25.25 1.75.75ZM488 144l2-1 1-1.25-1-2h-3l1 4.25Zm44-1.25.75 1.25 1.25-2.75-1.5.25-.5 1.25Zm-44.5 1.5V146l1.5.75-1.5-2.5Zm231.047-24.5c2.833 1.667 6.25 3.083 10.25 4.25 4.167 1 8.167 1.5 12 1.5 2.5 0 4.75-.25 6.75-.75-3.833 2.833-9.083 4.5-15.75 5 6.667 1.667 11.583 4 14.75 7-1.833-.667-4.083-1-6.75-1-3.667 0-7.583.583-11.75 1.75-4 1-7.417 2.417-10.25 4.25 1.5 2.167 3.667 4.333 6.5 6.5 2.833 2 5.333 3.167 7.5 3.5-1.5 1.167-3.583 2.083-6.25 2.75-2.5.667-4.917 1-7.25 1-1.5 0-2.583-.083-3.25-.25 1.333 2.5 3.5 5.083 6.5 7.75 3.167 2.5 6.167 4.167 9 5-1.5.5-3.417.75-5.75.75-1.5 0-3.417-.167-5.75-.5 3.167 1.667 6.083 3.75 8.75 6.25s4.583 5.083 5.75 7.75c-3-3.167-7-5.917-12-8.25-4.833-2.5-9.333-3.917-13.5-4.25 2.833 1.833 5.5 4.5 8 8 2.667 3.5 4.25 6.75 4.75 9.75-2.167-2.333-5.25-4.417-9.25-6.25-3.833-1.833-7.333-2.833-10.5-3 2.333 1.833 4.583 4.417 6.75 7.75 2.167 3.167 3.583 6.25 4.25 9.25-1.167-2.667-3.333-5.25-6.5-7.75-3.167-2.667-6.167-4.417-9-5.25-.167 3 .417 6.417 1.75 10.25 1.5 3.833 3.25 6.917 5.25 9.25-2.5-.667-5.167-2.25-8-4.75s-5-5.083-6.5-7.75c1.5 3 2.25 6.833 2.25 11.5 0 2.833-.417 5.333-1.25 7.5-.667-2.833-2.417-5.833-5.25-9s-5.667-5.25-8.5-6.25l.25 3c0 3.333-.5 6.75-1.5 10.25-.833 3.667-2 6.417-3.5 8.25-.667-2.833-2.5-6.083-5.5-9.75-2.833-3.667-5.583-6.167-8.25-7.5.5 3.333-.083 7.417-1.75 12.25-1.5 4.833-3.417 8.417-5.75 10.75-.5-4.667-2.667-9.083-6.5-13.25-3.667-4.167-10-7.25-19-9.25-.167 2.833-1.333 6-3.5 9.5-2.167 3.667-4.417 6.333-6.75 8 .167-.833.25-2.25.25-4.25 0-3-.333-5.917-1-8.75s-1.667-5.167-3-7c-2.167 1.5-4.333 3.833-6.5 7-2 3.333-3.167 6.417-3.5 9.25-1-2.5-1.5-5.667-1.5-9.5 0-4.167.667-7.333 2-9.5-2 1-3.917 2.917-5.75 5.75-1.833 2.667-3.083 5.25-3.75 7.75-.333-.833-.5-2.25-.5-4.25 0-3.667.583-6.75 1.75-9.25-2 3-4.583 5.833-7.75 8.5s-6.25 4.583-9.25 5.75c2.333-2.833 4.167-6.667 5.5-11.5 1.333-4.833 1.833-9.167 1.5-13-4.333.333-9.167 1.833-14.5 4.5-5.167 2.5-8.917 5.417-11.25 8.75.167-4.167 1.75-8.833 4.75-14 3.167-5.167 6.5-8.833 10-11-.5-.167-1.417-.25-2.75-.25-2.5 0-5.333.583-8.5 1.75-3.167 1-5.75 2.25-7.75 3.75 1-2.5 2.75-5 5.25-7.5s5.083-4.417 7.75-5.75c-3.5 1.5-7.75 2.25-12.75 2.25-3 0-5.917-.417-8.75-1.25 3.333-.833 6.917-2.5 10.75-5s6.5-5.167 8-8c-2.333.167-5.333-.583-9-2.25s-6.333-3.5-8-5.5c2.333-.667 5.083-2.167 8.25-4.5s5.333-4.583 6.5-6.75c-3.333-2.833-7.917-5.083-13.75-6.75-5.833-1.667-11-2.333-15.5-2 3.333-3 8-5.5 14-7.5 5.833-2 10.917-2.667 15.25-2-1.667-1.333-3.917-2.417-6.75-3.25-2.833-.833-5.583-1.25-8.25-1.25-1 0-2.333.167-4 .5 1.833-1.333 4.167-2.333 7-3 2.833-.833 5.667-1.25 8.5-1.25 1.667 0 2.833.083 3.5.25-2.5-2.833-6.333-5.167-11.5-7-5-1.8333-9.417-2.5833-13.25-2.25 2.667-2.5 6.5-4.5 11.5-6 5.167-1.5 9.75-2.0833 13.75-1.75-3.333-.6667-7.083-2.25-11.25-4.75-4.167-2.6667-7.25-5.3333-9.25-8 1.167.3333 3.083.5 5.75.5 3.333 0 6.667-.3333 10-1 3.5-.8333 6.25-2 8.25-3.5-3.333-.1667-6.917-1.4167-10.75-3.75-3.833-2.5-6.917-5.1667-9.25-8 2.5 1.6667 5.417 3.0833 8.75 4.25 3.5 1 6.75 1.5 9.75 1.5 1 0 2.333-.1667 4-.5-2-1.1667-3.917-3.25-5.75-6.25-1.833-3.1667-2.917-6-3.25-8.5 1.333.8333 3.167 1.5 5.5 2s4.667.75 7 .75c1.5 0 3.083-.1667 4.75-.5-2.167-1.8333-4.167-4.5833-6-8.25-1.667-3.8333-2.667-7.25-3-10.25 1.833 2.3333 4.5 4.5833 8 6.75 3.667 2 6.917 3.1667 9.75 3.5-2.167-2.6667-4-6.25-5.5-10.75-1.5-4.6667-2.083-8.8333-1.75-12.5 1.167 3.3333 3.5 6.6667 7 10 3.667 3.3333 7.167 5.5833 10.5 6.75-1.833-4.3333-2.75-8.9167-2.75-13.75 0-3.3333.417-5.8333 1.25-7.5 1 3.1667 2.833 6.4167 5.5 9.75 2.833 3.3333 5.583 5.5833 8.25 6.75-.167-.5-.25-1.4167-.25-2.75 0-2.6667.5-5.5833 1.5-8.75 1-3.1667 2.167-5.5833 3.5-7.25.667 2.5 2.25 5.3333 4.75 8.5 2.5 3.1667 4.917 5.4167 7.25 6.75 1.5-2.3333 2.75-5.3333 3.75-9 1-3.6667 1.25-6.75.75-9.25 2 2.1667 3.75 5 5.25 8.5 1.667 3.3333 2.417 6.25 2.25 8.75 3-2.8333 5.667-7.0833 8-12.75 2.5-5.6667 3.833-10.75001 4-15.250011 2.167 2.166671 4 5.166671 5.5 9.000001 1.5 3.83331 2.583 7.91671 3.25 12.25001.167-3.6667.917-7.4167 2.25-11.25 1.5-3.83334 3.25-7.00001 5.25-9.500003-2.5 4.666663-3.75 10.750003-3.75 18.250003 0 4.1667.5 7.9167 1.5 11.25 2.667-2.6667 4.917-6.25 6.75-10.75 1.833-4.6667 2.75-8.8333 2.75-12.50001 1.167 2.33333 1.75 5.33331 1.75 9.00001 0 5.3333-1.083 10.6667-3.25 16 2.833-1.5 5.583-4.0833 8.25-7.75 2.833-3.8333 4.583-7.3333 5.25-10.5 1.167 2.3333 1.75 5.5 1.75 9.5 0 3.1667-.333 5.8333-1 8 2-3.6667 4.583-7.0833 7.75-10.25 3.167-3.3333 6.333-5.5833 9.5-6.75-2.833 3.1667-5.083 7.5-6.75 13-1.667 5.5-2.333 10.5-2 15 3.833-1.5 7.583-4 11.25-7.5s6.083-7.0833 7.25-10.75c-.667 4.1667-2.25 8.5-4.75 13-2.333 4.5-5.083 7.6667-8.25 9.5.667.1667 1.833.25 3.5.25 2.833 0 5.833-.4167 9-1.25 3.167-.8333 5.667-1.8333 7.5-3-.167 2.8333-1.083 6.25-2.75 10.25-1.5 3.8333-3.25 6.6667-5.25 8.5.5.1667 1.25.25 2.25.25 2 0 4.25-.4167 6.75-1.25 2.5-1 4.583-2.0833 6.25-3.25-1 2-2.75 3.9167-5.25 5.75s-4.917 3.0833-7.25 3.75c1.833 1.6667 4.667 3.0833 8.5 4.25s6.917 1.5 9.25 1c-.667 2.1667-2.417 4.6667-5.25 7.5-2.667 2.8333-5.167 4.75-7.5 5.75 1.833-.6667 4-1 6.5-1 3 0 6.167.4167 9.5 1.25 3.333.8333 6.167 1.9167 8.5 3.25-3.833-.3333-8.167.1667-13 1.5-4.667 1.1667-8.333 2.9167-11 5.25 2.5-.5 5.417-.75 8.75-.75 9.5 0 16.583 1.75 21.25 5.25-1.833-.6667-4.167-1-7-1-3.833 0-7.833.6667-12 2-4.167 1.167-7.75 2.75-10.75 4.75 2.667 2.5 6.667 4.417 12 5.75 5.5 1.167 10.333 1.5 14.5 1-3.167 2.333-7.417 4.25-12.75 5.75-5.167 1.5-9.75 2-13.75 1.5Zm-55-14.5c-1.333-1.167-3.333-2-6-2.5s-5.083-.583-7.25-.25c1.5-1.167 3.583-2.083 6.25-2.75 2.667-.6667 5-.8333 7-.5-1.667-1.3333-4-2.4167-7-3.25-3-1-5.583-1.3333-7.75-1 1.833-1.5 4.167-2.75 7-3.75s5.25-1.4167 7.25-1.25c-2.5-1.3333-5.75-1.8333-9.75-1.5-1.333.3333-2.333.5-3 .5-.167.1667-.417.25-.75.25-.167 0-.333.0833-.5.25l.25-.25-3 .25c-1.5 0-3-.25-4.5-.75 3-.6667 6.167-2.1667 9.5-4.5 3.5-2.5 6-5.0833 7.5-7.75-2.333.3333-4.833 1.25-7.5 2.75-2.5 1.3333-4.25 2.8333-5.25 4.5.167-1.8333.75-3.8333 1.75-6s2.25-4 3.75-5.5c-2.167 1.8333-4.167 4.1667-6 7-1.667 2.8333-2.75 5.5-3.25 8-.167-.6667-.25-1.8333-.25-3.5 0-2.8333.417-5.6667 1.25-8.5.833-3 2-5.4167 3.5-7.25-1.333 1.1667-2.5 2.8333-3.5 5s-1.417 4-1.25 5.5c-1-1.3333-1.75-3.0833-2.25-5.25-.333-2.3333-.333-4.3333 0-6-1.667 2.6667-2.5 6.25-2.5 10.75 0 2.5.25 4.6667.75 6.5-1.667-1.6667-3.167-4.0833-4.5-7.25-1.333-3.3333-2-6.25-2-8.75-.167.5-.25 1.3333-.25 2.5 0 1.6667.333 3.5 1 5.5s1.417 3.6667 2.25 5c-.667-.3333-1.167-.6667-1.5-1 .167.5.5 1.6667 1 3.5-1.333-2-3.25-3.9167-5.75-5.75-2.333-1.8333-4.5-2.8333-6.5-3 .667 1.6667 1.833 3.5 3.5 5.5 1.833 1.8333 3.5 3.0833 5 3.75-1.667.3333-3.083.5-4.25.5-1.333 0-2.333-.0833-3-.25 2 1.3333 3.333 2.3333 4 3-1.167-.5-2.75-.75-4.75-.75-2.167 0-4.083.4167-5.75 1.25 1 1 2.417 1.8333 4.25 2.5 2 .6667 3.667.9167 5 .75-2.5 1.6667-5 2.4167-7.5 2.25 1.667.3333 3.25 1 4.75 2 1.667.8333 2.917 1.6667 3.75 2.5-1.667.1667-3.667.6667-6 1.5-2.167.833-3.75 1.75-4.75 2.75 2.167 1.5 4.833 2.75 8 3.75s5.917 1.333 8.25 1c-3 2.167-6.667 3.667-11 4.5 4.167.667 7.083 1.833 8.75 3.5-.5-.167-1.417-.25-2.75-.25-2 0-4.083.333-6.25 1s-3.833 1.583-5 2.75c1.5 1.167 3.583 2.083 6.25 2.75 2.667.667 5.333 1 8 1 1.333 0 3-.167 5-.5-2 1.5-4.667 2.667-8 3.5-3.167.667-6.25.833-9.25.5 1.333.333 2.667.917 4 1.75 1.333.667 2.333 1.417 3 2.25-1.333.167-2.917.75-4.75 1.75-1.833 1-3.167 2-4 3 .833.833 2.167 1.667 4 2.5 1.833.667 3.333 1 4.5 1-.333 1-1.25 2.083-2.75 3.25-1.5 1.167-2.917 2-4.25 2.5 1.333.333 2.583.5 3.75.5 1.833 0 3.75-.25 5.75-.75 2-.667 3.583-1.5 4.75-2.5-.667 1.5-2 2.917-4 4.25l3-.25c-1.333 1-2.583 2.583-3.75 4.75-1.167 2-1.75 3.833-1.75 5.5 1.667-.667 3.417-1.917 5.25-3.75 1.833-2 3-3.917 3.5-5.75.333 1 .5 2.75.5 5.25.667-1.5 1.667-2.917 3-4.25-.167.5-.25 1.333-.25 2.5 0 2 .75 3.917 2.25 5.75 1.5 1.667 3.917 2.833 7.25 3.5.333-.667.5-1.917.5-3.75 0-3.833-.917-7.417-2.75-10.75 2 .667 4 2.083 6 4.25s3.417 4.25 4.25 6.25c-1-2.667-2.583-5.333-4.75-8-2.167-2.833-4.417-4.833-6.75-6 2.333.5 5.083 1.75 8.25 3.75l-.75-1.5c1.5 1 3.583 1.5 6.25 1.5 2 0 3.583-.25 4.75-.75-.667-1.167-1.75-2.333-3.25-3.5-1.5-1.333-2.75-2.083-3.75-2.25.667-.833 1.917-1.583 3.75-2.25 1.833-.833 3.333-1.167 4.5-1-1.167-1-2.75-1.917-4.75-2.75s-3.75-1.25-5.25-1.25c1.167-1 2.833-1.833 5-2.5s3.917-.917 5.25-.75c-1.333-1.5-3.417-2.667-6.25-3.5-2.667-1-5.083-1.417-7.25-1.25 1.667-1.333 3.833-2.417 6.5-3.25 2.667-1 5-1.417 7-1.25-1-1-2.417-1.75-4.25-2.25-1.833-.667-3.417-.917-4.75-.75.667-.667 1.667-1.25 3-1.75 1.333-.667 2.667-1.083 4-1.25-3.167-.333-6-1.417-8.5-3.25 1.667 0 3.5-.333 5.5-1 2.167-.833 3.833-1.75 5-2.75ZM169.66 313.75c4 .167 7.084 2.083 9.25 5.75 2.334 3.5 3.5 7.75 3.5 12.75 0 5.5-1.333 10.333-4 14.5-2.5 4-6 5.917-10.5 5.75 4.833 2.333 7.25 6.25 7.25 11.75 0 4.333-1.5 8.333-4.5 12-3 3.5-6.5 5.25-10.5 5.25-1.833 0-3.75-.5-5.75-1.5 3.167 3.667 4.75 6.75 4.75 9.25 0 1-.333 1.833-1 2.5-.5.5-1.167.75-2 .75-2.5 0-5.583-1.917-9.25-5.75.667 1.333 1 2.917 1 4.75 0 3.5-1.5 6.5-4.5 9s-6.333 3.75-10 3.75c-4.667 0-8.083-2.25-10.25-6.75.5 2.5.75 4.583.75 6.25 0 2.833-.5 5.083-1.5 6.75-.833 1.667-2 2.5-3.5 2.5-1.667 0-3.333-1.167-5-3.5-1.5-2.167-2.667-5.333-3.5-9.5.167 4.167-.667 7.417-2.5 9.75-1.667 2.5-4 3.75-7 3.75-2.8332 0-5.8332-1.167-8.9998-3.5-3.1667-2.167-6-5.25-8.5-9.25-.6667 3.667-2.25 6.417-4.75 8.25-2.5 2-5.3334 3-8.5 3-3.6667 0-6.9167-1.167-9.75-3.5-2.6667-2.333-4-5.5-4-9.5 0-.667.1666-1.833.5-3.5-2.5 4.667-6 7-10.5 7-2.8334 0-5.3334-1-7.5-3-2.1667-2.167-3.25-4.75-3.25-7.75 0-2 .6666-4.333 2-7-1.5 1-3.1667 1.5-5 1.5-4.3334 0-8.4167-2.417-12.25-7.25-3.6667-4.833-5.5-9.667-5.5-14.5 0-4.167 1.5-7.167 4.5-9-4.3334.5-7.8334-.333-10.50004-2.5-2.5-2.333-3.75-5.083-3.75-8.25 0-2.833 1-5.333 3-7.5 2.16664-2.167 5.16664-3.417 9.00004-3.75-4.6667 0-8.25004-.917-10.75004-2.75-2.5-2-3.75-4.25-3.75-6.75 0-2.667 1.25-4.917 3.75-6.75 2.66666-2 6.25004-3 10.75004-3-4.1667 0-7.50004-.917-10.00004-2.75-2.33334-2-3.5-4.25-3.5-6.75 0-2.667 1.16666-4.917 3.5-6.75 2.5-2 5.91664-2.917 10.25004-2.75-3.8334-.667-6.8334-2-9.00004-4-2.16667-2-3.25-4.167-3.25-6.5s1-4.333 3-6c2.00004-1.667 4.83334-2.5 8.50004-2.5.6666 0 2.1666.167 4.5.5-2.5-1.833-3.75-4.5-3.75-8 0-4.5 1.8333-8.833 5.5-13 3.6666-4.333 7.5833-6.5 11.75-6.5 2 0 3.8333.583 5.5 1.75-.5-1.333-.75-2.583-.75-3.75 0-4.333 2.5-8.167 7.5-11.5 5-3.5 10.1666-5.25 15.5-5.25 6.1666 0 10.1666 2.333 12 7-.5-4.5 0-8 1.5-10.5 1.5-2.667 3.4166-4 5.75-4 2.1666 0 4.0833 1.167 5.75 3.5 1.6666 2.167 2.6666 5.333 3 9.5.5-3.833 2.1666-6.75 5-8.75 3-2 6.4168-3 10.2498-3 4.667 0 8.75 1.417 12.25 4.25 3.5 2.667 5 6.333 4.5 11 1.167-3.5 2.5-6.167 4-8 1.667-2 3.167-3 4.5-3 1 0 1.833.583 2.5 1.75.667 1 1 2.417 1 4.25 0 2.333-.5 5.167-1.5 8.5 1.667-3 3.5-5.25 5.5-6.75s3.917-2.25 5.75-2.25c1.667 0 3 .667 4 2 1 1.167 1.5 2.833 1.5 5 0 3.167-1 6.5-3 10 1.833-1.333 4-2 6.5-2 4.333 0 8.334 2.083 12 6.25 3.667 4.167 5.5 8.5 5.5 13 0 4-1.583 7.083-4.75 9.25.667-.167 1.583-.25 2.75-.25 3.834 0 6.833 1.25 9 3.75 2.167 2.333 3.25 5.167 3.25 8.5 0 3-1 5.667-3 8-1.833 2.167-4.583 3.5-8.25 4 4.167-.167 7.333.333 9.5 1.5 2.334 1.167 3.5 2.583 3.5 4.25 0 1.667-1.166 3.167-3.5 4.5-2.167 1.167-5.333 1.833-9.5 2Zm-63.75 41c-.167-.5-.25-1.333-.25-2.5 0-2.833 1-5.333 3-7.5s4.417-3.167 7.25-3c-1.667-1-3-2.583-4-4.75-.833-2.333-1.25-4.917-1.25-7.75 0-3.5.667-6.667 2-9.5 1.5-2.833 3.583-4.333 6.25-4.5-3 0-5.417-1.417-7.25-4.25-1.667-2.833-2.5-6.167-2.5-10 0-4.833 1.333-8.5 4-11-2.5.333-4.75-.25-6.75-1.75-1.833-1.667-2.75-3.667-2.75-6 0-.667.167-1.5.5-2.5-1.333.667-2.917 1-4.7498 1-2 0-3.9167-.417-5.75-1.25-1.8334-.833-3.25-1.917-4.25-3.25-.5 2.667-2 4.833-4.5 6.5-2.3334 1.667-4.75 2.333-7.25 2 .8333 1.167 1.25 2.25 1.25 3.25 0 1.5-.5834 2.75-1.75 3.75-1 .833-2.5 1.25-4.5 1.25 2.8333 1 4.25 2.167 4.25 3.5 0 1-.75 1.833-2.25 2.5-1.3334.5-3.3334.667-6 .5 2.3333.167 4.0833.917 5.25 2.25 1.3333 1.167 2 2.583 2 4.25 0 1.833-.75 3.417-2.25 4.75-1.5 1.167-3.5834 1.833-6.25 2 3.1666 0 5.5833.75 7.25 2.25 1.8333 1.5 2.75 3.25 2.75 5.25 0 1.833-.8334 3.5-2.5 5-1.5 1.5-3.5834 2.333-6.25 2.5 3 .167 5.4166 1.833 7.25 5 1.8333 3 2.75 6.417 2.75 10.25 0 2.667-.5 5-1.5 7 .5-.167 1.3333-.25 2.5-.25 3.3333 0 6.6666 1.083 10 3.25 3.5 2 6 4.417 7.5 7.25.3333-1.833 1-3.25 2-4.25.9998-1.167 2.3328-1.75 3.9998-1.75 1.167 0 2.083.167 2.75.5Zm251.797-86.25v25l12.5 12.5v37.5l-12.5 12.5v25l-25 25h-100l-25-25v-12.5l-12.5-12.5v-62.5l12.5-12.5v-12.5l25-25h25l12.5-12.5h25l12.5 12.5h25l25 25Zm-86.5-2.5h8v-24h-8v24Zm14-22v24h2v-24h-2Zm12 0h-2v22h2v-22Zm-60 72h2v-58h6v-2h-8v60Zm28-40v-20h-16v20h-2v40h2v-40h6v-18h8v18h2Zm44-8v-12h-4v18h6v2h8v-8h-10Zm16-10v-2h-4v2h4v8h2v-8h-2Zm34 72v-8h-14v-46h-2v-10h-8v10h-8v62h18v8h-20v6h-14v2h14v-2h20v-6h6v-8h-6v-8h14Zm-16-8h2v8h-10v-54h8v46Zm-48-28.5-12.5-12.5-25 25v37.5l25 25 12.5-12.5v-62.5Zm56 20.5h8v-8h-8v8Zm-114 16v-2h-6v2h6Zm8 8v-2h-6v2h6v2h2v22h2v-22h-2v-2h-2Zm-8 18v-4h-12v2h6v2h6v8h2v-8h-2Zm108 8v-8h-2v6h-34v2h36Zm-108 12h-6v2h6v-2Zm-6 10h-6v2h6v-2Zm213.047-161.5-6.75 5-7.75-.25-4.25-4.75h18.75Zm93.25 70.75 1.75 6 5-2.25-1.5 10-1.25 5-7.25 13.75-3.25 4-3.75 3.5-8.25 6 7.75-10-5.75.25-2.75 3.25.75 6.5-4.5 2.25-4.75 2-1-4.25h-.25l-.5-.5-6.5 3.75-1-3 1.5-3.5h-.75l-11.5 3 1.5-2.75-3.25-2.5 5.25-1.25.75-2-2-.5-5.5.25 1.25-1.75-4.5-7.5h-.5l3.25 5.25-4.5-.25-4.5-6.25-3.75-3.5 7-4.25 6 1v-5l-3.75-7.5 4.5-.75 1.5-4h.25l-3.75-9.25 4-3v-.5l1-.75 2.25-6.75-1.5-3.5-4.25 1.5 2.75 5.75-1.75 1.5 1.5 2.25-7 5.5-.5-8.5-3.25 8-.5-5.25-4.25-8.25 7.5.5-.5-.75 1.5-2-.5-1.25-1.75-1-6-.5v1.25l-1.5-1.5-3.5-.25h-.25l-1.75-.25-.5-5.25v.5l-1.5-1v.75l-1.5-.5-2.75.5 1.25-1.25-2.75-1-.75.5v-.75l-.5-.25.25-.25-.75-6.5-.25.75h-2.25l-3.5 4-1.25-4.25h-.75l.5-1.25-.5-1.25h.75l2-6 3.75-7h-3.25l-.5 1-7.75 3-1.25-3.25-.75 3.5 1.5 4.5 5.5-2.25-2.75 8.5-6.25 5-.75-1.25-3.75 1-.75 1.75 5.25-1.5-1.25 9.75 3-1.25 1-7.75 6.25-5 2 6.75 7 2.75 7.5 5 .25-.5v.5l.25.25-.25.25.5 5.5h-3.5l-.5.75-6.75-6.5-2.5-.5 6.5 6.25-10.5-1-2.75 10.25v4.5l-.25 1.25.5.25 7 5.5-9.75 2.75v.25h-.5V301l-4.5-1.25 1.25 7 5.5-.25 10.25-3 7.25-.25-.25 1 10-1.75 5.25-11.75 3.25-8 .5 8.5 3.75 9.5-5.25 1 3.75 7.5v5l-6-1-6.25 3.75 1.25.75-1.5 2.25 3.75 3.25.25.25 5.5 8-8.5 1h-.75l1.25 2.75 2.75-.25 4.5.25-1.25 1.75.75 2 7.25-.5-4.25 8.5 4 3.25-5.25.5-1.5-1.5-7 .5 2.5-5.5-.5-.5.5.25.5-.75-1.25-.5-3.5 7.75-2.25-3.75-1.25 3.75h-13l-7.25 1.25-3.75-7.75-.25.5 4 8.25 2.75 8.25v37.5l-2 5-9.5 1.75h-9.25l2.25-6.75-2.75-5.75-8 1 2.75-4.75-3.75-.25-3.75 6.25 11-1.5-2.5 7.25h-32.75l-9.5-2-2-4.75v-39l5 2 7.25.75 2.75 3.25 2 11 4 6 4.5 8 1-1.25-.75-1.5-4-6 11.5-1.25-.25-2.75-8.25 1-2-11-2.75-3.25.5-1.5h-1v-.5l-5.75-.5-5-2.25v-26.5h-1.5V299.5l.5-5.75-.5-9v-15h-1.5l1.5-1.5v-8l.75-.75 2.25-3.75-1.25-2.5-3.5 6-.75.75v-24.5l2-4.75 4.75-2h19l3.5 4.75-8-1.25 5 6.75-7.75-2h-6.5l1.5 8.25-2 7-2.25 6.5 1.5 3-2.75 2.75 2.25 3.75 4.5.25v-2.25l-3.75-6 3.25-9.25v.5l1.25-4-1.5-8.25h6.5l6.75 1.75 1.75-3-2.75-3.5 6.25 1-2-1h2.75l-2.75-3.5h4.75l7.5 3.5-1.5.25 3.5.75-.5-.75 7.75.25 1.5 2.25.25-.25-1.75-2.75 3.75-.25 3.75-5.25 4.75 4.25 1-.25-1.75-.75h25.25l10.25 1 5.25.75 2 3.75 3 .75-5-9.75 10 2.25 5 1.75 2.5 2.75 4.5.25-2.75-3.25 4.75 1.75 9.25 5 4.25 3 3.75 3.5-9-2.75.5 4.5 4.5 1.25 1.25 1.5 9.5 3.25.75 8-6.25-3.5-3.75-.5 2 7.25-4 .25v.5l2.75-.25v-.25l.5.25h.75v.5l5 2.75-.75-8 2.5 4.25 2.25 4.75 1 2.75 1.25-.75 1 7.75v.25l.25 2.25.25 5.25-.25 6-5 2.5-1.75-6-3-7.25-.25-.25 2.5 6.25-6.25-3.25-2.5-3.25-1 2.75-2-1.5-5.5 6.5-3.25-.5 1.25-7.5 1.75-6.25.25.25 6.75-9-.25-1-6.75 9-1.75 6.25-1.25 7.5-1.75-2-5.5.5-2.5-4.5h-.75v-1.5l-.25-.75-1 .5 4.5 8.5-8.25 8-2.25-11-5.5 1.5-.25 3.75-2.5 6.75 8.25-2.5 1.25 6 3 1.75 6.5-6.25-.25-1 1.25-.25.75-.5v.5l5.25-.5 3.25.5-1.5 4.5 2-.5 1.5-4.75 6 6.5-.25.75 5.75.75-.75-3.25-5-.75 5.75-10 .75 5 3.75 2-4.25 7.25h1l4.5-7.75Zm-85.25-60.75.25-1-.25-.25-.25 1.25h.25Zm-.5.5v.25h.25V235h-.25Zm54.25.75-3.5-.25-4.5 4.25 3.25.5 4.75-4.5Zm-86.75 1h1.25l-1-.5-.25.5Zm45.5 3.25 2.5-3.5-.25-.25-2.25 3.5v.25Zm-45 .25 2.75-2.75h-.5l-2.75 2.75h.25l-.75 1.75 5.5 1 .5-1.75-5-1Zm15.75.75.75 1.25 6.75-1-1.25-3-.75 1.25-1-1.5h-.5l1.5 2.25-5.5.75Zm64.25 12.75-4.25-.5-6.5-1.25-7.25 1.25-1 4.75-4.75-1.5v2.25l3.75 1 1.75-1.75 3.5-.5 4-4.25 1 3.25h.5l.75-.25 1.25-1.5 4.25.5.5 3.5-4.75 8.5v3.5l3-1v-6.25l4.75-8.5 2.25 6.5 1.5 1.25 2.25-.25-2-5.5 5 1.25-5.5-4.75h8l3.5-8.25-4.5-1.5-3 7.25h-8l-3.5-9.5-.75.75 4.25 11.5Zm-30.25-5.25 3.75-3.5-.25-.75-4.75 4.25h1.25Zm6.75-.5.25.75 3.25-.75.75-3-4.25 3Zm-40.5 5.25 3.75-4v-1l.25-1-2-.25-5 5.5 3 .75Zm-17.25.75 1.5 2.25 2.5-7.75-2.5.75-1.5 4.75Zm45.25 5 .25.75 3.5-.75-.25.75 1.5-1.25-7-9.5h-.75l5.5 7.75-2.75 2.25Zm54.5 1.25 2.25-3.5h-3l.75 3.5Zm5.5-1.25 3.75.5.5-2.25-2.5-.25h-2.75l1 2Zm-47.25 5.25 1.5 1.25-1.5-2.5-.75-1.25V263h-.25l1 1.25Zm-1-1.25-1 .25 1 .5V263Zm43.5.75v.25l5-.25-.25-.25-4.75.25Zm-10.25.75-.75.25-.5 9.75 3.5-.5-2.25-9.5Zm22.5 9 .25-1-1.5-5.25-1.5 5.5 2.75.75Zm-50-5 1.25 2.25 2.5-.25.5-.75.5-1.75-4.75.5Zm-51.25 10 1.25-3.75-2.25-1.75 1.25-3-2.75-1-1.75 2.75 3.25 1.25-2 6.25 3-.75Zm98.5-5.5 2 3.75v-.25l-2-3.5Zm-1.5.5-8.25 2 3.25 2.25 4-1 1-3.25Zm-110 4.5-.5 1.75 3.75-1 1-1.75-4.25 1Zm-11.25 7-1.5-6.5-.5-.75-3.25 5 .75 4-3.75.5-3.25 5.75 3.75-.75 2.25-4.25 1.25 1.75.25-.25-1.5-2.25 5-.75-1.25-1.5h1.75Zm6.5-4.25h-1.25l1 .25.25-.25Zm112 16.5-3.25-3.75-2.25.75 1.25-1.5-1.75-2 4.75-1.5 3.25-3.75 1.75 2.25 2-.5-1 1.75 1.5 1.75-3 1-3.25 5.5Zm-137.75-1.5-.5 5.5v-14.5l.5 9Zm24.25-8.75-2.75 2.75-1.25-1.5-.75 1.25.75.75 2.75-.5 2.75-2.75h-1.5Zm6.25 14.5.5.75 2.75-.75-1.5-2-1.25-4.75-.25.75-1.5 1.5 1.25 4.5Zm-17.5 3.75-2.25-6.25-2.25 8.25.25.25.75-3.5 2.75 1.5.75-.25Zm11.5-5.75-5 .5-1 1.75 4.75-.5 1.25-1.25v-.5Zm15.5 3.25 3.25 2.5 3.25-3.75-8.25 1.25-2.25 1.75-.75-1-1.25 5-11 3.5 3.5 5-.5 1 4.25-1.25-5 5.75-.5 1.5 6.25 7.75-6.75-2.25 1.75 3.5 8.5 3 3.5-5.75-6.25-7.75-5.25-.75 6.75-7.75 2-7.5 4.75-3.75Zm35.75 3.5.5.25v-.25l-.5-.25v.25Zm-1.5 4 3 5.75 3.25-.75-1-.5.25-2-3-5.75-1.5.25-1 3Zm-64.75-1.75 2 .25.5-.75-2.5.5Zm57.25 6.75-6.25 4.5h-12.5l2-4.5-1-5.25h-2.75l-1.25-1.25 2 9.75-1.25 2.5 3.25-.25h12.5l6.25-4.5 3.25-.25.25-1.25-4.5.5Zm70-5 .25-.75-7.75 1v.75l7.5-1Zm-124.75 5.25 3.5-.5 2.75-5.25-4 .75-.75 3-1.5 2Zm109.75 2 .5-3 7 1.75-.25-1-6-1.5-7.5 2.5 5.25 5.75.5-2.25-1.5-1.5 2-.75Zm-84.25-1.25-1.25 5 3.25.5h.5l.75-2.5-3.25-3Zm-27 6.75-.75-5-.5.75.5 4.25h.75Zm8.75-2.75 2.5-.75.25-.75-7.75 1.5-1.75 3.25 1.25.25 2.75-2.5 3-.5-.25-.5Zm50.5-1.25h-1.25l.75 1.25.5-1.25Zm3.75.5-4 1 1.25 1.5 7 .75 4.5.25.75-1-5.25-.5-2.5-1.75-1.75-.25Zm33.75 6.5-2.25-4.75h-.75l2 4.5 1 .25Zm3-3.5 10.25.75.25-.75-12.25-1-.5 4.75 2 .5.25-4.25Zm-40.25 24 5.75-1.25 5.75-.5v-3l-5.75.5-2-8.25-.25.25-2.25-7-.5-.5-3.25-.25-10.75 1.25-5.25-.5-8 1 .5 1.75 4.25-.5 5.25.5 10.25-1.25.5-1 .25.75 6.5.5-.5.75 2 6h1l-.75 2.25 1.5 6.25-3.75.75-.5 1.5Zm9.75-14.5-3.25-1-1.75 1.75 4 .5 1-1.25Zm-39.25 5 2 2.75-.5-2.25-1.5-.5Zm-26 2.75 2.75 9.5 2 .75 1-8.25-5.75-2Zm27.75 15.75 3.25 5h.25l-3.5-5.25h-4.5l2.25-4.25-3.5-6.25-10.25 1.5 3-3.75-.5-1-5.75 6.75-1-6-.75-.25 1.75 9 2 2h1l.25 1.5 1.25 1.25.75 2h1.5l-1.5-4.5h-.75l-4.5-4.75 10.25-1.5 3.5 6.5 1 .25-.5.5.5 1-1.75-.25-3.75 2.25h1l.75.75 3.75-2.5h4.5Zm53-10-2.75-1.25 1.5 1.5 1.5.75-.25-1Zm-81.5 2.5-1.75-1.25.25.75 1.5.5Zm21 16-4.75.5.25 2.75 7.5-1-3-2.25Zm21.25 12.5.25-.25-.25-.5h.5l2.75-4.75-3-1.75-.25.25-9.5-2-1.5 11-3.75 3.75-5-5.25-2.25 4.5 2.5 2.5 2.5 2.75 2.25-4 2 4.5 1.75-1.75 1.5-11 9.5 2 4.25 8.5h.25l-4.25-8.5h-.25Zm-23 5.75-.25 1.75h.75l.5-2.25-1 .5Zm-.75 1.75-.25-1.25-.75.5-.5.5 1.5.25Zm21 2 3.5 5.75h.5l-3.5-5.75h-.5Zm276.019-26c-.166.833-.583 2.5-1.25 5h.75c0 .167-.166.583-.5 1.25h2.25c-.333.667-.5 1.083-.5 1.25h-2c-.5 1.833-1.25 3.5-2.25 5h.25l-1.5 2.5h1l-.75 1.25h-3.25l-.75 1.25h.25c-.666 1-1.916 2.667-3.75 5h-.25l-2.25 2.5h3.5l-2.75 2.5h14.25l-1.5 1.25h-9.75l-1.5 1.25h19l-3.5 2.5h-27.5l-2 1.25h34.5l-2 1.25h-40.5l-4.5 2.5h48.75c-3.166 1.667-7.083 3.333-11.75 5h-46.25c-7.166 2.333-14.583 4-22.25 5h-8.75c-4.833.667-10.416 1-16.75 1-7 0-13.083-.333-18.25-1h8.75c-8.166-1-15.833-2.667-23-5h46c-5.166-1.833-9.083-3.5-11.75-5h-49l-4.5-2.5h40.5l-1.75-1.25h-34.5l-1.75-1.25h27.5l-3.25-2.5h-19l-1.5-1.25h10l-1.5-1.25h-14l-2.5-2.5h-3.5l-2.25-2.5h.25c-1.333-1.667-2.5-3.333-3.5-5h-.5l-.75-1.25h3.5l-.75-1.25h-1.25l-1.25-2.5c-1.166-2.667-1.833-4.333-2-5h2l-.5-1.25h-2l-.25-1.25h-.75c-.333-1.333-.666-3-1-5-.166-1-.25-2.583-.25-4.75V355h2.5l.25-1.25h-10.75c.5-2 1.667-3.25 3.5-3.75h8.75c.334-.167.834-.25 1.5-.25h47.5c1.5 0 2.584.083 3.25.25h-8.5c2 .333 4.334 1.583 7 3.75h11l.25.25 1.5 1h-2.75c4.834 3.167 10.584 4.75 17.25 4.75 9.667 0 15.667-1.583 18-4.75h17.5c.334-.667.5-1.083.5-1.25h-22c.167-.167.25-.5.25-1 0-1.167-.25-2.083-.75-2.75h5.25c-.833-1.5-2.5-2.75-5-3.75h.75c-3.5-1.5-11.666-3.167-24.5-5h-5l-1.75-.25c-5.833-.667-11.916-1.833-18.25-3.5h.25l-4.5-1.25h3.25c-3.666-1.167-6-2-7-2.5h1.5c-3.166-1.333-6.666-3-10.5-5h4.75l-5.5-3.75h-7.5c-1.666-1.167-3.166-2.417-4.5-3.75h.75c-2.166-2.167-3.666-3.833-4.5-5h2c-.166-.167-.75-1-1.75-2.5h-1.25l-1.5-2.5h3.75l-1.75-3.75h2.25c-.333-.667-.5-1.083-.5-1.25h-6.75l-.5-1.25h-9c-.5-1-1.083-2.667-1.75-5h-5.75l-.25-1.25h8l-.75-5c-.166-1-.25-2.667-.25-5h6c-.166-.667-.25-1.583-.25-2.75v-2.25h1.25l.25-2.5h1.75c0-.833.167-2.083.5-3.75h-1.75c0-1.333.25-2.583.75-3.75h.75c.167-.333.25-.75.25-1.25h-2c.5-1.833 1.084-3.5 1.75-5h2c0-.167.167-.583.5-1.25h.25l1-2.5h-3.5c.334-.667.5-1.083.5-1.25h2.5l2.25-3.75h2.25c1-1.667 2.167-3.333 3.5-5h-.75l2.25-2.5h-2.5l5.25-5h1c3-2.333 5.334-4 7-5h1.5l7-3.75h-9.5c.334-.167.75-.333 1.25-.5.5-.167 1-.417 1.5-.75h8.5c1.334-.667 3.5-1.5 6.5-2.5h-8.5l4-1.25h12.25c9.667-2.667 19.75-4 30.25-4 10.667 0 20.667 1.333 30 4h-12l4 1.25h8.25c3 1 5.25 1.833 6.75 2.5h-8.5c.334.167.75.333 1.25.5.5.167 1 .417 1.5.75h9.5l7 3.75h-1.75c2.334 1.333 4.834 3 7.5 5h-1c2 1.5 3.917 3.167 5.75 5h2.5l2.5 2.5h.75l4 5h-2l2.5 3.75h-2.5l.75 1.25h3.5l1.25 2.5h-.25l.75 1.25h-2.25c1.167 2.667 1.834 4.333 2 5h2l.5 1.25h-1l.75 3.75c.167.667.25 1.583.25 2.75v1h-1.25c0 .667-.333 1.5-1 2.5h1.75c-1 1.333-2.333 2-4 2h-50c-2.833 0-5.333-.667-7.5-2h-1.75c-.666-.333-1.5-1-2.5-2l-.75-.5h1.25c-2.666-2-5.75-3.25-9.25-3.75-.833-.167-2-.25-3.5-.25-1.833 0-3.166.083-4 .25h1.75c-3.833.5-6.25 1.75-7.25 3.75h-1.75c-.5.667-.75 1.5-.75 2.5h-1.25v.5c0 1.833.834 3.333 2.5 4.5h-6c2.667 2 8.167 3.667 16.5 5 1.5.333 3 .583 4.5.75 1.5.167 2.917.333 4.25.5 8.167 1 15.334 2.25 21.5 3.75h-8l5 1.25h5.75c6.167 1.833 10.917 3.5 14.25 5h9l2.75 1.25h6.5l2.5 1.25h-2.25l5.75 3.75h-3.75l3 2.5h1.25l2.5 2.5h-2c1 1 2.334 2.667 4 5h-.75l2.25 3.75h7.5l1.75 3.75h-4.75c1 2.667 1.5 4.333 1.5 5h-1.5l.75 2.5h-3.25c0 .5.084.917.25 1.25h-.25c.334 1.667.5 2.917.5 3.75h4.75l.5 5h-.75V350h-5.25l-.25 3.75h22V355h-17.5l-.75 5h-.25Z" fill="limegreen"/>
</svg>
